<svg xmlns="http://www.w3.org/2000/svg" width="75.566" height="67.007" viewBox="0 0 75.566 67.007">
  <g id="Group_1191" data-name="Group 1191" transform="translate(-284.33 -72.07)">
    <g id="Group_72" data-name="Group 72">
      <g id="Group_44" data-name="Group 44">
        <path id="Path_143" data-name="Path 143" d="M285.68,104.85l3.17-2s-.72-1.63-.75-1.63-1.26-.75-1.78-.48a1.832,1.832,0,0,0-.83,1.62,20.769,20.769,0,0,0,.19,2.49Z" fill="#98c2e2"/>
        <g id="Group_39" data-name="Group 39">
          <path id="Path_144" data-name="Path 144" d="M293.45,106.43a6.482,6.482,0,0,0-2.69-5.15,3.919,3.919,0,0,0-1.52-.34,4.434,4.434,0,0,0-2.03.97,2.446,2.446,0,0,0-.89,1.59l3.03,6.22a1.588,1.588,0,0,0,1.45.06,7.709,7.709,0,0,0,1.24-.7,3,3,0,0,0,1.04-1,3.088,3.088,0,0,0,.22-.52,3.525,3.525,0,0,0,.16-1.14Z" fill="#35212d"/>
          <path id="Path_145" data-name="Path 145" d="M286.23,104.38a6.482,6.482,0,0,0,2.69,5.15c1.48.86,2.69-.05,2.69-2.04a6.467,6.467,0,0,0-2.69-5.15C287.44,101.48,286.23,102.39,286.23,104.38Z" fill="#4f3745"/>
          <path id="Path_146" data-name="Path 146" d="M286.73,104.74a5.071,5.071,0,0,0,2.12,4.05c1.17.68,2.12-.04,2.12-1.6a5.071,5.071,0,0,0-2.12-4.05C287.68,102.46,286.73,103.18,286.73,104.74Z" fill="#35212d"/>
          <path id="Path_147" data-name="Path 147" d="M287.32,105.04a3.845,3.845,0,0,0,1.6,3.06c.88.51,1.6-.03,1.6-1.21a3.845,3.845,0,0,0-1.6-3.06C288.04,103.32,287.32,103.86,287.32,105.04Z" fill="#e6f2fb"/>
          <g id="Group_38" data-name="Group 38">
            <path id="Path_148" data-name="Path 148" d="M288.86,104.07a3.462,3.462,0,0,1,1.44,2.75c0,1.06-.64,1.55-1.44,1.09a3.462,3.462,0,0,1-1.44-2.75C287.42,104.1,288.06,103.61,288.86,104.07Zm.32.36a1.358,1.358,0,0,0-.3-.24.8.8,0,0,0-.53-.15.236.236,0,0,0-.15.07c-.04.05-.04.11.01.21s.12.23.18.32c.03.05.05.03.12.03a.541.541,0,0,1,.19.03,1.591,1.591,0,0,1,.32.19c.05.04.07.02.09,0a1.035,1.035,0,0,0,.12-.26.223.223,0,0,0-.05-.21Zm-1.08,1.12a1.812,1.812,0,0,0,.77,1.46c.42.24.77-.02.77-.58a1.812,1.812,0,0,0-.77-1.46C288.45,104.73,288.1,104.98,288.1,105.55Zm1.99.44a2.573,2.573,0,0,0-.3-.78,2.039,2.039,0,0,0-.25-.38c-.07-.06-.11-.04-.13.02a1.4,1.4,0,0,0-.09.29.216.216,0,0,0,.04.14,2.085,2.085,0,0,1,.23.43c.03.07.07.19.1.29s.03.14.07.18a1.788,1.788,0,0,0,.24.15c.07.04.11.03.11-.06a.96.96,0,0,0-.03-.27Zm-.32,1.82a.745.745,0,0,0,.2-.19.95.95,0,0,0,.19-.57,1.185,1.185,0,0,0-.02-.27c-.02-.1-.06-.15-.13-.17a.931.931,0,0,0-.24-.05c-.04,0-.03.05-.04.13a1.087,1.087,0,0,1-.06.23.767.767,0,0,1-.18.25.123.123,0,0,0-.02.12,2.58,2.58,0,0,0,.14.39c.03.08.08.13.14.13Zm-1.32-.41a1.565,1.565,0,0,0,.17.21,1.09,1.09,0,0,0,.55.31.48.48,0,0,0,.29.01c.05-.04.04-.11.01-.19a2.588,2.588,0,0,0-.17-.38c-.02-.04-.05-.08-.09-.08a.708.708,0,0,1-.31-.08,1.32,1.32,0,0,1-.2-.13c-.07-.05-.1-.09-.12-.07a.848.848,0,0,0-.14.19c-.04.06-.04.12.02.21Zm-.81-1.3a2.61,2.61,0,0,0,.35.76,1.386,1.386,0,0,0,.17.21c.07.06.1.04.12-.03a1.7,1.7,0,0,0,.06-.28c0-.05-.03-.08-.08-.17s-.11-.2-.14-.28a3.671,3.671,0,0,1-.14-.46.155.155,0,0,0-.07-.12,1.216,1.216,0,0,0-.27-.15c-.05-.02-.1-.01-.1.08a2.086,2.086,0,0,0,.1.45Zm.01-.73a.676.676,0,0,0,.27.07c.03,0,.05,0,.06-.07a1.359,1.359,0,0,1,.06-.38.81.81,0,0,1,.1-.18c.04-.06.07-.06.05-.12a2.374,2.374,0,0,0-.12-.35c-.04-.1-.08-.15-.14-.14a.224.224,0,0,0-.15.08.91.91,0,0,0-.23.52,1.139,1.139,0,0,0-.02.4.2.2,0,0,0,.13.17Z" fill="#fff"/>
            <path id="Path_149" data-name="Path 149" d="M288.78,105.26a1.5,1.5,0,0,1,.62,1.19c0,.46-.28.67-.62.47a1.5,1.5,0,0,1-.62-1.19C288.16,105.27,288.44,105.06,288.78,105.26Z" fill="#badaf6"/>
            <path id="Path_150" data-name="Path 150" d="M290.01,106.32a1.574,1.574,0,0,1-.24-.15c-.04-.03-.04-.07-.07-.18s-.07-.22-.1-.29a4.037,4.037,0,0,0-.23-.43.216.216,0,0,1-.04-.14,1.1,1.1,0,0,1,.09-.29c.02-.05.06-.07.13-.02a2.039,2.039,0,0,1,.25.38,2.7,2.7,0,0,1,.3.78,1.574,1.574,0,0,1,.03.27c0,.09-.04.1-.11.06Z" fill="#4f3745"/>
            <path id="Path_151" data-name="Path 151" d="M289.11,104.9a.066.066,0,0,1-.09,0,1.231,1.231,0,0,0-.32-.19.582.582,0,0,0-.19-.03c-.07,0-.09.02-.12-.03a3.579,3.579,0,0,1-.18-.32c-.05-.1-.06-.16-.01-.21a.236.236,0,0,1,.15-.07.779.779,0,0,1,.53.15,1.154,1.154,0,0,1,.3.24.26.26,0,0,1,.05.21.893.893,0,0,1-.12.26Z" fill="#4f3745"/>
            <path id="Path_152" data-name="Path 152" d="M287.54,104.8a.91.91,0,0,1,.23-.52.278.278,0,0,1,.15-.08c.06,0,.1.04.14.14a3.591,3.591,0,0,1,.12.35c.01.06-.01.06-.05.12a.811.811,0,0,0-.1.18,1.359,1.359,0,0,0-.06.38c0,.06-.03.07-.06.07a.98.98,0,0,1-.27-.07.242.242,0,0,1-.13-.17,1.989,1.989,0,0,1,.02-.4Z" fill="#4f3745"/>
            <path id="Path_153" data-name="Path 153" d="M287.65,105.57a.914.914,0,0,1,.27.15.176.176,0,0,1,.07.12,3.226,3.226,0,0,0,.14.46c.03.08.09.18.14.28s.08.12.08.17a1.7,1.7,0,0,1-.06.28q-.03.12-.12.03a.771.771,0,0,1-.17-.21,2.61,2.61,0,0,1-.35-.76,2.538,2.538,0,0,1-.1-.45c0-.09.05-.1.1-.08Z" fill="#4f3745"/>
            <path id="Path_154" data-name="Path 154" d="M288.57,107.01a.641.641,0,0,1,.12.07,1.318,1.318,0,0,0,.2.13,1.179,1.179,0,0,0,.31.08c.04,0,.07.03.09.08a2.591,2.591,0,0,1,.17.38c.03.08.04.15-.01.19a.575.575,0,0,1-.29-.01,1.13,1.13,0,0,1-.55-.31.785.785,0,0,1-.17-.21c-.06-.09-.06-.15-.02-.21a1.33,1.33,0,0,1,.14-.19Z" fill="#4f3745"/>
            <path id="Path_155" data-name="Path 155" d="M289.51,107.17a.9.9,0,0,0,.18-.25,1.839,1.839,0,0,0,.06-.23c.02-.08,0-.13.04-.13a1.026,1.026,0,0,1,.24.05c.07.02.11.06.13.17a1.141,1.141,0,0,1,.02.27.919.919,0,0,1-.19.57.549.549,0,0,1-.2.19c-.06,0-.11-.06-.14-.13a3.05,3.05,0,0,1-.14-.39c-.01-.05-.02-.09.02-.12Z" fill="#4f3745"/>
          </g>
        </g>
        <g id="Group_41" data-name="Group 41">
          <path id="Path_156" data-name="Path 156" d="M299.26,109.84a6.482,6.482,0,0,0-2.69-5.15,3.919,3.919,0,0,0-1.52-.34,4.434,4.434,0,0,0-2.03.97,2.446,2.446,0,0,0-.89,1.59l3.03,6.22a1.588,1.588,0,0,0,1.45.06,7.709,7.709,0,0,0,1.24-.7,3,3,0,0,0,1.04-1,3.088,3.088,0,0,0,.22-.52,3.525,3.525,0,0,0,.16-1.14Z" fill="#35212d"/>
          <path id="Path_157" data-name="Path 157" d="M292.04,107.79a6.482,6.482,0,0,0,2.69,5.15c1.49.86,2.69-.05,2.69-2.04a6.467,6.467,0,0,0-2.69-5.15C293.24,104.89,292.04,105.8,292.04,107.79Z" fill="#4f3745"/>
          <path id="Path_158" data-name="Path 158" d="M292.54,108.15a5.071,5.071,0,0,0,2.12,4.05c1.17.68,2.12-.04,2.12-1.6a5.071,5.071,0,0,0-2.12-4.05C293.49,105.87,292.54,106.59,292.54,108.15Z" fill="#35212d"/>
          <path id="Path_159" data-name="Path 159" d="M293.13,108.45a3.845,3.845,0,0,0,1.6,3.06c.88.51,1.6-.03,1.6-1.21a3.845,3.845,0,0,0-1.6-3.06C293.85,106.73,293.13,107.27,293.13,108.45Z" fill="#e6f2fb"/>
          <g id="Group_40" data-name="Group 40">
            <path id="Path_160" data-name="Path 160" d="M294.68,107.48a3.462,3.462,0,0,1,1.44,2.75c0,1.06-.64,1.55-1.44,1.09a3.462,3.462,0,0,1-1.44-2.75C293.24,107.51,293.88,107.02,294.68,107.48Zm.31.35a1.726,1.726,0,0,0-.3-.24.8.8,0,0,0-.53-.15.236.236,0,0,0-.15.07c-.04.05-.04.11.01.2s.12.23.18.32c.03.05.05.03.12.03a.541.541,0,0,1,.19.03,1.591,1.591,0,0,1,.32.19c.05.04.07.03.09,0a1.035,1.035,0,0,0,.12-.26.223.223,0,0,0-.05-.21Zm-1.08,1.13a1.812,1.812,0,0,0,.77,1.46c.42.24.77-.01.77-.58a1.8,1.8,0,0,0-.77-1.46C294.26,108.14,293.91,108.4,293.91,108.96Zm2,.44a2.573,2.573,0,0,0-.3-.78,2.039,2.039,0,0,0-.25-.38c-.07-.06-.11-.04-.13.02a1.4,1.4,0,0,0-.09.29.216.216,0,0,0,.04.14,2.085,2.085,0,0,1,.23.43c.03.07.07.19.1.29s.03.14.07.18a1.788,1.788,0,0,0,.24.15c.07.04.11.03.11-.06a.96.96,0,0,0-.03-.27Zm-.32,1.82a.745.745,0,0,0,.2-.19.95.95,0,0,0,.19-.57,1.185,1.185,0,0,0-.02-.27c-.02-.1-.06-.15-.13-.17a.931.931,0,0,0-.24-.05c-.04,0-.03.05-.04.13a1.087,1.087,0,0,1-.06.23.9.9,0,0,1-.18.25.123.123,0,0,0-.02.12,2.58,2.58,0,0,0,.14.39c.03.08.08.13.14.13Zm-1.33-.41a1.565,1.565,0,0,0,.17.21,1.09,1.09,0,0,0,.55.31.48.48,0,0,0,.29.01c.05-.04.04-.11.01-.19a2.588,2.588,0,0,0-.17-.38c-.02-.04-.05-.08-.09-.08a.708.708,0,0,1-.31-.08,1.32,1.32,0,0,1-.2-.13c-.07-.05-.1-.09-.12-.07a.848.848,0,0,0-.14.19c-.04.06-.04.12.02.21Zm-.8-1.3a2.61,2.61,0,0,0,.35.76,1.386,1.386,0,0,0,.17.21c.07.06.1.04.12-.03a1.7,1.7,0,0,0,.06-.28c0-.05-.03-.08-.08-.17s-.11-.2-.14-.28a3.671,3.671,0,0,1-.14-.46.155.155,0,0,0-.07-.12,1.216,1.216,0,0,0-.27-.15c-.05-.02-.1-.01-.1.08a2.086,2.086,0,0,0,.1.45Zm0-.73a.676.676,0,0,0,.27.07c.03,0,.05,0,.06-.07a1.359,1.359,0,0,1,.06-.38.81.81,0,0,1,.1-.18c.04-.06.07-.06.05-.12a2.374,2.374,0,0,0-.12-.35c-.04-.1-.08-.15-.14-.14a.224.224,0,0,0-.15.08.91.91,0,0,0-.23.52,1.139,1.139,0,0,0-.02.4.2.2,0,0,0,.13.17Z" fill="#fff"/>
            <path id="Path_161" data-name="Path 161" d="M294.6,108.67a1.5,1.5,0,0,1,.62,1.19c0,.46-.28.67-.62.47a1.5,1.5,0,0,1-.62-1.19C293.98,108.68,294.26,108.47,294.6,108.67Z" fill="#badaf6"/>
            <path id="Path_162" data-name="Path 162" d="M295.82,109.73a1.574,1.574,0,0,1-.24-.15c-.04-.03-.04-.07-.07-.18s-.07-.22-.1-.29a4.037,4.037,0,0,0-.23-.43.216.216,0,0,1-.04-.14,1.1,1.1,0,0,1,.09-.29c.02-.05.06-.07.13-.02a2.039,2.039,0,0,1,.25.38,2.7,2.7,0,0,1,.3.78,1.574,1.574,0,0,1,.03.27c0,.09-.04.1-.11.06Z" fill="#4f3745"/>
            <path id="Path_163" data-name="Path 163" d="M294.92,108.31a.066.066,0,0,1-.09,0,1.231,1.231,0,0,0-.32-.19.582.582,0,0,0-.19-.03c-.06,0-.09.02-.12-.03a3.579,3.579,0,0,1-.18-.32c-.05-.1-.06-.16-.01-.2a.236.236,0,0,1,.15-.07.779.779,0,0,1,.53.15,1.154,1.154,0,0,1,.3.24.26.26,0,0,1,.05.21.893.893,0,0,1-.12.26Z" fill="#4f3745"/>
            <path id="Path_164" data-name="Path 164" d="M293.36,108.21a.91.91,0,0,1,.23-.52.278.278,0,0,1,.15-.08c.06,0,.1.04.14.14a3.591,3.591,0,0,1,.12.35c.01.06-.01.06-.05.12a.811.811,0,0,0-.1.18,1.359,1.359,0,0,0-.06.38c0,.06-.03.07-.06.07a.98.98,0,0,1-.27-.07.242.242,0,0,1-.13-.17,1.989,1.989,0,0,1,.02-.4Z" fill="#4f3745"/>
            <path id="Path_165" data-name="Path 165" d="M293.46,108.98a.914.914,0,0,1,.27.15.176.176,0,0,1,.07.12,3.226,3.226,0,0,0,.14.46c.03.08.09.18.14.28s.08.12.08.17a1.7,1.7,0,0,1-.06.28q-.03.12-.12.03a.771.771,0,0,1-.17-.21,2.61,2.61,0,0,1-.35-.76,2.538,2.538,0,0,1-.1-.45c0-.09.05-.1.1-.08Z" fill="#4f3745"/>
            <path id="Path_166" data-name="Path 166" d="M294.38,110.41a.641.641,0,0,1,.12.07,1.318,1.318,0,0,0,.2.13,1.179,1.179,0,0,0,.31.08c.04,0,.07.03.09.08.06.12.12.25.17.38.03.08.04.15-.01.19a.575.575,0,0,1-.29-.01,1.13,1.13,0,0,1-.55-.31.785.785,0,0,1-.17-.21c-.06-.09-.06-.15-.02-.21a1.33,1.33,0,0,1,.14-.19Z" fill="#4f3745"/>
            <path id="Path_167" data-name="Path 167" d="M295.32,110.58a.9.9,0,0,0,.18-.25,1.839,1.839,0,0,0,.06-.23c.02-.08,0-.13.04-.13a1.026,1.026,0,0,1,.24.05c.07.02.11.06.13.17a1.141,1.141,0,0,1,.02.27.919.919,0,0,1-.19.57.549.549,0,0,1-.2.19c-.06,0-.11-.06-.14-.13a3.05,3.05,0,0,1-.14-.39c-.01-.05-.02-.09.02-.12Z" fill="#4f3745"/>
          </g>
        </g>
        <g id="Group_43" data-name="Group 43">
          <g id="Group_42" data-name="Group 42">
            <path id="Path_168" data-name="Path 168" d="M301.39,108.2a4.656,4.656,0,0,0-1.94-3.71l-3.38-1.95h0l-6-3.46a1.184,1.184,0,0,0-1.37-.03h0l-2.72,1.59a1.318,1.318,0,0,1,1.06.12c.16.07.55.28,1.08.58l.3.17c2.42,1.37,7.07,4.13,7.69,4.44a4.812,4.812,0,0,1,2.1,2.3,23.713,23.713,0,0,1,.43,4.1l2.75-1.59v-2.54Z" fill="#badaf6"/>
            <path id="Path_169" data-name="Path 169" d="M285.98,100.63a.157.157,0,0,0-.08.05Z" fill="#badaf6"/>
          </g>
          <path id="Path_170" data-name="Path 170" d="M296.7,106.08l-3.38-1.95h0l-6-3.46c-1.07-.62-1.94.04-1.94,1.47v2.54l.3.17v-2.54c0-1.21.74-1.77,1.64-1.24l7.44,4.3h0l1.94,1.12a3.921,3.921,0,0,1,1.64,3.14v2.54l.3.17V109.8a4.656,4.656,0,0,0-1.94-3.71Z" fill="#e6f2fb"/>
        </g>
      </g>
      <g id="Group_46" data-name="Group 46">
        <path id="Path_171" data-name="Path 171" d="M310.28,114.57l-10.26-5.92v3.53l10.26,5.93Z" fill="#35212d"/>
        <path id="Path_172" data-name="Path 172" d="M323.25,107.14l-12.97,7.43v3.54l12.97-7.44Z" fill="#23141e"/>
        <path id="Path_173" data-name="Path 173" d="M312.99,101.21l-12.97,7.44,10.26,5.92,12.97-7.43Z" fill="#4f3745"/>
        <g id="Group_45" data-name="Group 45">
          <path id="Path_174" data-name="Path 174" d="M300.96,112.27h0a.2.2,0,0,1-.2-.2V109.8a.2.2,0,0,1,.2-.2h0a.2.2,0,0,1,.2.2v2.27A.2.2,0,0,1,300.96,112.27Z" fill="#23141e"/>
          <path id="Path_175" data-name="Path 175" d="M302.15,112.91h0a.2.2,0,0,1-.2-.2v-2.27a.2.2,0,0,1,.2-.2h0a.2.2,0,0,1,.2.2v2.27A.2.2,0,0,1,302.15,112.91Z" fill="#23141e"/>
          <path id="Path_176" data-name="Path 176" d="M303.33,113.67h0a.2.2,0,0,1-.2-.2V111.2a.2.2,0,0,1,.2-.2h0a.2.2,0,0,1,.2.2v2.27A.2.2,0,0,1,303.33,113.67Z" fill="#23141e"/>
          <path id="Path_177" data-name="Path 177" d="M304.52,114.31h0a.2.2,0,0,1-.2-.2v-2.27a.2.2,0,0,1,.2-.2h0a.2.2,0,0,1,.2.2v2.27A.2.2,0,0,1,304.52,114.31Z" fill="#23141e"/>
          <path id="Path_178" data-name="Path 178" d="M305.7,115h0a.2.2,0,0,1-.2-.2v-2.27a.2.2,0,0,1,.2-.2h0a.2.2,0,0,1,.2.2v2.27A.2.2,0,0,1,305.7,115Z" fill="#23141e"/>
          <path id="Path_179" data-name="Path 179" d="M306.89,115.64h0a.2.2,0,0,1-.2-.2v-2.27a.2.2,0,0,1,.2-.2h0a.2.2,0,0,1,.2.2v2.27A.2.2,0,0,1,306.89,115.64Z" fill="#23141e"/>
          <path id="Path_180" data-name="Path 180" d="M308.07,116.4h0a.2.2,0,0,1-.2-.2v-2.27a.2.2,0,0,1,.2-.2h0a.2.2,0,0,1,.2.2v2.27A.2.2,0,0,1,308.07,116.4Z" fill="#23141e"/>
          <path id="Path_181" data-name="Path 181" d="M309.26,117.04h0a.2.2,0,0,1-.2-.2v-2.27a.2.2,0,0,1,.2-.2h0a.2.2,0,0,1,.2.2v2.27A.2.2,0,0,1,309.26,117.04Z" fill="#23141e"/>
        </g>
      </g>
      <g id="Group_47" data-name="Group 47">
        <path id="Path_182" data-name="Path 182" d="M311.24,115.47l6.73-3.86,3.95,5.49-6.76,3.91Z" fill="#23141e"/>
        <path id="Path_183" data-name="Path 183" d="M311.83,119.31l2.83,1.63c.45.26.82-.02.82-.62v-1.63a2.017,2.017,0,0,0-.82-1.58l-2.83-1.63c-.45-.26-.82.02-.82.62v1.63A2.017,2.017,0,0,0,311.83,119.31Z" fill="#35212d"/>
        <path id="Path_184" data-name="Path 184" d="M312.2,119.03l2.09,1.21c.34.19.61-.01.61-.46v-1.21a1.434,1.434,0,0,0-.61-1.16l-2.09-1.21c-.34-.19-.61.01-.61.46v1.21A1.434,1.434,0,0,0,312.2,119.03Z" fill="#23141e"/>
      </g>
      <g id="Group_59" data-name="Group 59">
        <g id="Group_52" data-name="Group 52">
          <path id="Path_185" data-name="Path 185" d="M327.74,116.22l3.18-2s-.72-1.63-.75-1.63-1.26-.75-1.78-.48a1.81,1.81,0,0,0-.83,1.62,20.769,20.769,0,0,0,.19,2.49Z" fill="#98c2e2"/>
          <g id="Group_49" data-name="Group 49">
            <path id="Path_186" data-name="Path 186" d="M335.56,117.88a6.448,6.448,0,0,0-2.7-5.15,3.927,3.927,0,0,0-1.53-.34,4.434,4.434,0,0,0-2.03.97,2.459,2.459,0,0,0-.89,1.6l3.03,6.23a1.588,1.588,0,0,0,1.45.06,7.709,7.709,0,0,0,1.24-.7,3,3,0,0,0,1.04-1,3.088,3.088,0,0,0,.22-.52,3.525,3.525,0,0,0,.16-1.14Z" fill="#35212d"/>
            <path id="Path_187" data-name="Path 187" d="M328.32,115.83a6.448,6.448,0,0,0,2.7,5.15c1.49.86,2.7-.05,2.7-2.04a6.448,6.448,0,0,0-2.7-5.15C329.53,112.93,328.32,113.84,328.32,115.83Z" fill="#4f3745"/>
            <path id="Path_188" data-name="Path 188" d="M328.83,116.19a5.105,5.105,0,0,0,2.12,4.06c1.17.68,2.12-.04,2.12-1.61a5.09,5.09,0,0,0-2.12-4.06C329.78,113.9,328.83,114.62,328.83,116.19Z" fill="#35212d"/>
            <path id="Path_189" data-name="Path 189" d="M329.42,116.49a3.879,3.879,0,0,0,1.6,3.07c.89.51,1.6-.03,1.6-1.21a3.879,3.879,0,0,0-1.6-3.07C330.13,114.77,329.42,115.31,329.42,116.49Z" fill="#e6f2fb"/>
            <g id="Group_48" data-name="Group 48">
              <path id="Path_190" data-name="Path 190" d="M330.97,115.52a3.435,3.435,0,0,1,1.44,2.75c0,1.06-.65,1.55-1.44,1.09a3.435,3.435,0,0,1-1.44-2.75C329.53,115.55,330.18,115.06,330.97,115.52Zm.31.36a1.358,1.358,0,0,0-.3-.24.8.8,0,0,0-.53-.15.236.236,0,0,0-.15.07c-.04.05-.04.11.01.21s.12.23.18.32c.03.05.05.03.12.03a.541.541,0,0,1,.19.03,1.591,1.591,0,0,1,.32.19c.05.04.07.03.09,0a1.035,1.035,0,0,0,.12-.26.223.223,0,0,0-.05-.21ZM330.2,117a1.831,1.831,0,0,0,.77,1.47c.42.24.77-.02.77-.58a1.846,1.846,0,0,0-.77-1.47C330.55,116.18,330.2,116.44,330.2,117Zm2,.44a2.573,2.573,0,0,0-.3-.78,2.039,2.039,0,0,0-.25-.38c-.07-.06-.11-.04-.13.02a1.4,1.4,0,0,0-.09.29.216.216,0,0,0,.04.14,2.085,2.085,0,0,1,.23.43c.03.07.07.19.1.29s.03.15.07.18a1.788,1.788,0,0,0,.24.15c.07.04.11.03.11-.06a.96.96,0,0,0-.03-.27Zm-.32,1.83a.891.891,0,0,0,.21-.19.95.95,0,0,0,.19-.57,1.185,1.185,0,0,0-.02-.27c-.02-.1-.06-.15-.13-.17a.931.931,0,0,0-.24-.05c-.04,0-.03.05-.04.13a1.087,1.087,0,0,1-.06.23.767.767,0,0,1-.18.25.123.123,0,0,0-.02.12c.04.13.09.27.14.39.03.08.08.13.14.13Zm-1.33-.42a1.565,1.565,0,0,0,.17.21,1.012,1.012,0,0,0,.55.31.48.48,0,0,0,.29.01c.05-.04.04-.11.01-.19a2.588,2.588,0,0,0-.17-.38c-.02-.04-.05-.08-.09-.08a.708.708,0,0,1-.31-.08,1.32,1.32,0,0,1-.2-.13c-.07-.05-.1-.09-.12-.07a.848.848,0,0,0-.14.19c-.04.06-.04.12.02.21Zm-.81-1.3a2.61,2.61,0,0,0,.35.76,1.386,1.386,0,0,0,.17.21c.07.06.1.04.13-.03a1.7,1.7,0,0,0,.06-.28c0-.05-.03-.08-.08-.17s-.11-.2-.14-.28a3.312,3.312,0,0,1-.14-.47.155.155,0,0,0-.07-.12,1.216,1.216,0,0,0-.27-.15c-.05-.02-.1-.01-.1.08a2.086,2.086,0,0,0,.1.45Zm.01-.73a.676.676,0,0,0,.27.07c.03,0,.05,0,.06-.07a1.359,1.359,0,0,1,.06-.38.81.81,0,0,1,.1-.18c.04-.06.07-.06.05-.12a2.374,2.374,0,0,0-.12-.35c-.04-.1-.08-.15-.14-.14a.224.224,0,0,0-.15.08.91.91,0,0,0-.23.52,1.139,1.139,0,0,0-.02.4.2.2,0,0,0,.13.17Z" fill="#fff"/>
              <path id="Path_191" data-name="Path 191" d="M330.88,116.71a1.473,1.473,0,0,1,.62,1.19c0,.46-.28.67-.62.47a1.473,1.473,0,0,1-.62-1.19C330.26,116.72,330.54,116.51,330.88,116.71Z" fill="#badaf6"/>
              <path id="Path_192" data-name="Path 192" d="M332.11,117.77a1.574,1.574,0,0,1-.24-.15c-.04-.03-.04-.07-.07-.18a2.387,2.387,0,0,0-.1-.29,4.037,4.037,0,0,0-.23-.43.216.216,0,0,1-.04-.14,1.1,1.1,0,0,1,.09-.29c.02-.05.06-.07.13-.02a2.039,2.039,0,0,1,.25.38,2.7,2.7,0,0,1,.3.78,1.574,1.574,0,0,1,.03.27c0,.09-.04.1-.11.06Z" fill="#4f3745"/>
              <path id="Path_193" data-name="Path 193" d="M331.21,116.35a.066.066,0,0,1-.09,0,1.231,1.231,0,0,0-.32-.19.582.582,0,0,0-.19-.03c-.07,0-.09.02-.12-.03a3.579,3.579,0,0,1-.18-.32c-.05-.1-.06-.16-.01-.21a.236.236,0,0,1,.15-.07.779.779,0,0,1,.53.15,1.154,1.154,0,0,1,.3.24.26.26,0,0,1,.05.21.893.893,0,0,1-.12.26Z" fill="#4f3745"/>
              <path id="Path_194" data-name="Path 194" d="M329.64,116.25a.91.91,0,0,1,.23-.52.278.278,0,0,1,.15-.08c.06,0,.1.04.14.14a3.591,3.591,0,0,1,.12.35c.01.06-.01.06-.05.12a.811.811,0,0,0-.1.18,1.359,1.359,0,0,0-.06.38c0,.06-.03.07-.06.07a.98.98,0,0,1-.27-.07.242.242,0,0,1-.13-.17,1.989,1.989,0,0,1,.02-.4Z" fill="#4f3745"/>
              <path id="Path_195" data-name="Path 195" d="M329.75,117.02a.914.914,0,0,1,.27.15.176.176,0,0,1,.07.12,3.308,3.308,0,0,0,.14.47c.03.08.09.18.14.28s.08.12.08.17a1.7,1.7,0,0,1-.06.28c-.02.08-.06.09-.13.03a.771.771,0,0,1-.17-.21,2.61,2.61,0,0,1-.35-.76,2.741,2.741,0,0,1-.1-.45c0-.09.05-.1.1-.08Z" fill="#4f3745"/>
              <path id="Path_196" data-name="Path 196" d="M330.67,118.46a.641.641,0,0,1,.12.07,1.318,1.318,0,0,0,.2.13,1.179,1.179,0,0,0,.31.08c.04,0,.07.03.09.08a3.169,3.169,0,0,1,.17.38c.03.08.04.15-.01.19a.578.578,0,0,1-.29-.01,1.09,1.09,0,0,1-.55-.31.785.785,0,0,1-.17-.21c-.06-.09-.06-.15-.02-.21a1.33,1.33,0,0,1,.14-.19Z" fill="#4f3745"/>
              <path id="Path_197" data-name="Path 197" d="M331.61,118.63a.9.9,0,0,0,.18-.25,1.839,1.839,0,0,0,.06-.23c.02-.08,0-.13.04-.13a1.026,1.026,0,0,1,.24.05c.07.02.11.06.13.17a1.141,1.141,0,0,1,.02.27.919.919,0,0,1-.19.57c-.06.09-.17.19-.21.19-.06,0-.11-.06-.14-.13a2.034,2.034,0,0,1-.14-.39c-.01-.05-.02-.09.02-.12Z" fill="#4f3745"/>
            </g>
          </g>
          <g id="Group_51" data-name="Group 51">
            <g id="Group_50" data-name="Group 50">
              <path id="Path_198" data-name="Path 198" d="M335.6,112.43l-.81-.47h0l-2.21-1.28h0l-.44-.25a1.2,1.2,0,0,0-1.38-.03h0l-2.72,1.59a1.341,1.341,0,0,1,1.07.12c.13.06.45.23.88.47,1.12.65,2,1.16,2.26,1.29.11.06.21.12.32.19a4.841,4.841,0,0,1,1.79,2.12,13.4,13.4,0,0,1,.44,2.75l2.75-1.6v-1.18a4.657,4.657,0,0,0-1.95-3.72Z" fill="#badaf6"/>
              <path id="Path_199" data-name="Path 199" d="M328.04,111.99a.157.157,0,0,0-.08.05Z" fill="#badaf6"/>
            </g>
            <path id="Path_200" data-name="Path 200" d="M331.93,113.5l-2.55-1.47c-1.07-.62-1.95.04-1.95,1.47v2.55l.3.17v-2.55c0-1.21.74-1.77,1.65-1.24l2.55,1.47v-.4Z" fill="#e6f2fb"/>
            <path id="Path_201" data-name="Path 201" d="M332.85,114.02l-3.04-1.75v.4l1.09.63h0l1.95,1.12a3.929,3.929,0,0,1,1.65,3.14v1.18l.3.17v-1.18a4.657,4.657,0,0,0-1.95-3.72Z" fill="#e6f2fb"/>
          </g>
        </g>
        <path id="Path_202" data-name="Path 202" d="M321.21,124.23l10.12-5.85-.94-1.61-8.01,4.63Z" fill="#4f3745"/>
        <g id="Group_53" data-name="Group 53">
          <path id="Path_203" data-name="Path 203" d="M334.18,117.15l-6.78,3.91-6.5-3.75,6.78-3.91Z" fill="#ad9a9d"/>
          <path id="Path_204" data-name="Path 204" d="M334.18,117.15v.36l-6.78,3.92v-.37Z" fill="#938284"/>
          <path id="Path_205" data-name="Path 205" d="M327.4,121.06l-6.5-3.75v.37l6.5,3.75Z" fill="#35212d"/>
        </g>
        <g id="Group_58" data-name="Group 58">
          <path id="Path_206" data-name="Path 206" d="M316.46,122.67l3.18-2s-.72-1.63-.75-1.63-1.26-.75-1.78-.48a1.832,1.832,0,0,0-.83,1.62,20.583,20.583,0,0,0,.19,2.49Z" fill="#98c2e2"/>
          <g id="Group_55" data-name="Group 55">
            <path id="Path_207" data-name="Path 207" d="M324.28,124.33a6.448,6.448,0,0,0-2.7-5.15,3.927,3.927,0,0,0-1.53-.34,4.434,4.434,0,0,0-2.03.97,2.459,2.459,0,0,0-.89,1.6l3.03,6.23a1.588,1.588,0,0,0,1.45.06,7.709,7.709,0,0,0,1.24-.7,3,3,0,0,0,1.04-1,3.088,3.088,0,0,0,.22-.52,3.525,3.525,0,0,0,.16-1.14Z" fill="#35212d"/>
            <path id="Path_208" data-name="Path 208" d="M317.04,122.27a6.448,6.448,0,0,0,2.7,5.15c1.49.86,2.7-.05,2.7-2.04a6.448,6.448,0,0,0-2.7-5.15C318.25,119.37,317.04,120.28,317.04,122.27Z" fill="#4f3745"/>
            <path id="Path_209" data-name="Path 209" d="M317.55,122.63a5.105,5.105,0,0,0,2.12,4.06c1.17.68,2.12-.04,2.12-1.61a5.09,5.09,0,0,0-2.12-4.06C318.5,120.34,317.55,121.06,317.55,122.63Z" fill="#35212d"/>
            <path id="Path_210" data-name="Path 210" d="M318.14,122.93a3.879,3.879,0,0,0,1.6,3.07c.89.51,1.6-.03,1.6-1.21a3.879,3.879,0,0,0-1.6-3.07C318.85,121.21,318.14,121.75,318.14,122.93Z" fill="#e6f2fb"/>
            <g id="Group_54" data-name="Group 54">
              <path id="Path_211" data-name="Path 211" d="M319.69,121.97a3.435,3.435,0,0,1,1.44,2.75c0,1.06-.65,1.55-1.44,1.09a3.435,3.435,0,0,1-1.44-2.75C318.25,122,318.9,121.51,319.69,121.97Zm.31.35a1.234,1.234,0,0,0-.31-.24.8.8,0,0,0-.53-.15.236.236,0,0,0-.15.07c-.05.05-.04.11.01.21s.12.23.18.32c.03.05.05.03.12.03a.541.541,0,0,1,.19.03,1.591,1.591,0,0,1,.32.19c.05.04.07.03.09,0a1.035,1.035,0,0,0,.12-.26.223.223,0,0,0-.05-.21Zm-1.08,1.12a1.831,1.831,0,0,0,.77,1.47c.42.24.77-.02.77-.58a1.846,1.846,0,0,0-.77-1.47C319.27,122.62,318.92,122.88,318.92,123.44Zm2,.45a2.573,2.573,0,0,0-.3-.78,2.039,2.039,0,0,0-.25-.38c-.07-.06-.11-.04-.13.02a1.4,1.4,0,0,0-.09.29.216.216,0,0,0,.04.14,2.085,2.085,0,0,1,.23.43c.03.07.07.19.1.29s.03.15.07.18a1.788,1.788,0,0,0,.24.15c.07.04.11.03.11-.06a.96.96,0,0,0-.03-.27Zm-.32,1.82a.891.891,0,0,0,.21-.19.95.95,0,0,0,.19-.57,1.185,1.185,0,0,0-.02-.27c-.02-.1-.06-.15-.13-.17a.931.931,0,0,0-.24-.05c-.04,0-.03.05-.04.13a1.087,1.087,0,0,1-.06.23.767.767,0,0,1-.18.25.123.123,0,0,0-.02.12,2.58,2.58,0,0,0,.14.39c.03.08.08.13.14.13Zm-1.33-.41a1.565,1.565,0,0,0,.17.21,1.012,1.012,0,0,0,.55.31.48.48,0,0,0,.29.01c.05-.04.04-.11.01-.19a2.588,2.588,0,0,0-.17-.38c-.02-.04-.05-.08-.09-.08a.708.708,0,0,1-.31-.08,1.32,1.32,0,0,1-.2-.13c-.07-.05-.1-.09-.12-.07a.848.848,0,0,0-.14.19c-.04.06-.04.12.02.21Zm-.81-1.3a2.61,2.61,0,0,0,.35.76,1.386,1.386,0,0,0,.17.21c.07.06.1.04.13-.03a1.7,1.7,0,0,0,.06-.28c0-.05-.03-.08-.08-.17s-.11-.2-.14-.28a3.312,3.312,0,0,1-.14-.47.155.155,0,0,0-.07-.12,1.216,1.216,0,0,0-.27-.15c-.05-.02-.1-.01-.1.08a2.086,2.086,0,0,0,.1.45Zm.01-.73a.676.676,0,0,0,.27.07c.03,0,.05,0,.06-.07a1.359,1.359,0,0,1,.06-.38.81.81,0,0,1,.1-.18c.04-.06.07-.06.05-.12a2.374,2.374,0,0,0-.12-.35c-.04-.1-.08-.15-.14-.14a.224.224,0,0,0-.15.08.91.91,0,0,0-.23.52,1.139,1.139,0,0,0-.02.4.2.2,0,0,0,.13.17Z" fill="#fff"/>
              <path id="Path_212" data-name="Path 212" d="M319.61,123.16a1.473,1.473,0,0,1,.62,1.19c0,.46-.28.67-.62.47a1.481,1.481,0,0,1-.63-1.19C318.98,123.17,319.26,122.96,319.61,123.16Z" fill="#badaf6"/>
              <path id="Path_213" data-name="Path 213" d="M320.83,124.22a1.574,1.574,0,0,1-.24-.15c-.04-.03-.04-.07-.07-.18s-.07-.22-.1-.29a4.037,4.037,0,0,0-.23-.43.216.216,0,0,1-.04-.14,1.1,1.1,0,0,1,.09-.29c.02-.05.06-.07.13-.02a2.039,2.039,0,0,1,.25.38,2.7,2.7,0,0,1,.3.78,1.574,1.574,0,0,1,.03.27c0,.09-.04.1-.11.06Z" fill="#4f3745"/>
              <path id="Path_214" data-name="Path 214" d="M319.93,122.79a.066.066,0,0,1-.09,0,1.231,1.231,0,0,0-.32-.19.582.582,0,0,0-.19-.03c-.07,0-.09.02-.12-.03a3.579,3.579,0,0,1-.18-.32c-.05-.1-.06-.16-.01-.21a.236.236,0,0,1,.15-.07.779.779,0,0,1,.53.15,1.453,1.453,0,0,1,.31.24.26.26,0,0,1,.05.21.893.893,0,0,1-.12.26Z" fill="#4f3745"/>
              <path id="Path_215" data-name="Path 215" d="M318.36,122.7a.91.91,0,0,1,.23-.52.278.278,0,0,1,.15-.08c.06,0,.1.04.14.14a3.591,3.591,0,0,1,.12.35c.01.06-.01.06-.05.12a.811.811,0,0,0-.1.18,1.359,1.359,0,0,0-.06.38c0,.06-.03.07-.06.07a.98.98,0,0,1-.27-.07.242.242,0,0,1-.13-.17,1.989,1.989,0,0,1,.02-.4Z" fill="#4f3745"/>
              <path id="Path_216" data-name="Path 216" d="M318.47,123.47a.914.914,0,0,1,.27.15.176.176,0,0,1,.07.12,3.308,3.308,0,0,0,.14.47c.03.08.09.18.14.28s.08.12.08.17a1.7,1.7,0,0,1-.06.28c-.02.08-.06.09-.13.03a.771.771,0,0,1-.17-.21,2.61,2.61,0,0,1-.35-.76,2.741,2.741,0,0,1-.1-.45c0-.09.05-.1.1-.08Z" fill="#4f3745"/>
              <path id="Path_217" data-name="Path 217" d="M319.39,124.9a.641.641,0,0,1,.12.07,1.318,1.318,0,0,0,.2.13,1.179,1.179,0,0,0,.31.08c.04,0,.07.03.09.08a3.169,3.169,0,0,1,.17.38c.03.08.04.15-.01.19a.578.578,0,0,1-.29-.01,1.09,1.09,0,0,1-.55-.31.785.785,0,0,1-.17-.21c-.06-.09-.06-.15-.02-.21a1.33,1.33,0,0,1,.14-.19Z" fill="#4f3745"/>
              <path id="Path_218" data-name="Path 218" d="M320.33,125.07a.9.9,0,0,0,.18-.25,1.839,1.839,0,0,0,.06-.23c.02-.08,0-.13.04-.13a1.026,1.026,0,0,1,.24.05c.07.02.11.06.13.17a1.141,1.141,0,0,1,.02.27.919.919,0,0,1-.19.57c-.06.09-.17.19-.21.19-.06,0-.11-.06-.14-.13a2.034,2.034,0,0,1-.14-.39c-.01-.05-.02-.09.02-.12Z" fill="#4f3745"/>
            </g>
          </g>
          <g id="Group_57" data-name="Group 57">
            <g id="Group_56" data-name="Group 56">
              <path id="Path_219" data-name="Path 219" d="M324.32,118.88l-.81-.47h0l-2.21-1.28h0l-.44-.25a1.2,1.2,0,0,0-1.38-.03h0l-2.72,1.59a1.341,1.341,0,0,1,1.07.12c.13.06.45.23.88.47,1.12.65,2,1.16,2.26,1.29.11.06.21.12.32.19a4.841,4.841,0,0,1,1.79,2.12,13.4,13.4,0,0,1,.44,2.75l2.75-1.6V122.6a4.657,4.657,0,0,0-1.95-3.72Z" fill="#badaf6"/>
              <path id="Path_220" data-name="Path 220" d="M316.76,118.44a.157.157,0,0,0-.08.05Z" fill="#badaf6"/>
            </g>
            <path id="Path_221" data-name="Path 221" d="M320.65,119.95l-2.55-1.47c-1.07-.62-1.95.04-1.95,1.47v2.55l.3.17v-2.55c0-1.21.74-1.77,1.65-1.24l2.55,1.47v-.4Z" fill="#e6f2fb"/>
            <path id="Path_222" data-name="Path 222" d="M321.57,120.47l-3.04-1.75v.4l1.09.63h0l1.95,1.12a3.929,3.929,0,0,1,1.65,3.14v1.18l.3.17v-1.18a4.657,4.657,0,0,0-1.95-3.72Z" fill="#e6f2fb"/>
          </g>
        </g>
      </g>
      <g id="Group_61" data-name="Group 61">
        <path id="Path_223" data-name="Path 223" d="M334.98,129.01l-10.25-5.92v3.54l10.25,5.92Z" fill="#35212d"/>
        <path id="Path_224" data-name="Path 224" d="M347.95,121.58l-12.97,7.43v3.54l12.97-7.43Z" fill="#23141e"/>
        <path id="Path_225" data-name="Path 225" d="M337.7,115.66l-12.97,7.43,10.25,5.92,12.97-7.43Z" fill="#4f3745"/>
        <g id="Group_60" data-name="Group 60">
          <path id="Path_226" data-name="Path 226" d="M325.67,126.71h0a.2.2,0,0,1-.2-.2v-2.27a.2.2,0,0,1,.2-.2h0a.2.2,0,0,1,.2.2v2.27A.2.2,0,0,1,325.67,126.71Z" fill="#23141e"/>
          <path id="Path_227" data-name="Path 227" d="M326.85,127.36h0a.2.2,0,0,1-.2-.2v-2.27a.2.2,0,0,1,.2-.2h0a.2.2,0,0,1,.2.2v2.27A.2.2,0,0,1,326.85,127.36Z" fill="#23141e"/>
          <path id="Path_228" data-name="Path 228" d="M328.03,128.11h0a.2.2,0,0,1-.2-.2v-2.27a.2.2,0,0,1,.2-.2h0a.2.2,0,0,1,.2.2v2.27A.2.2,0,0,1,328.03,128.11Z" fill="#23141e"/>
          <path id="Path_229" data-name="Path 229" d="M329.22,128.76h0a.2.2,0,0,1-.2-.2v-2.27a.2.2,0,0,1,.2-.2h0a.2.2,0,0,1,.2.2v2.27A.2.2,0,0,1,329.22,128.76Z" fill="#23141e"/>
          <path id="Path_230" data-name="Path 230" d="M330.41,129.45h0a.2.2,0,0,1-.2-.2v-2.27a.2.2,0,0,1,.2-.2h0a.2.2,0,0,1,.2.2v2.27A.2.2,0,0,1,330.41,129.45Z" fill="#23141e"/>
          <path id="Path_231" data-name="Path 231" d="M331.59,130.09h0a.2.2,0,0,1-.2-.2v-2.27a.2.2,0,0,1,.2-.2h0a.2.2,0,0,1,.2.2v2.27A.2.2,0,0,1,331.59,130.09Z" fill="#23141e"/>
          <path id="Path_232" data-name="Path 232" d="M332.77,130.84h0a.2.2,0,0,1-.2-.2v-2.27a.2.2,0,0,1,.2-.2h0a.2.2,0,0,1,.2.2v2.27A.2.2,0,0,1,332.77,130.84Z" fill="#23141e"/>
          <path id="Path_233" data-name="Path 233" d="M333.96,131.49h0a.2.2,0,0,1-.2-.2v-2.27a.2.2,0,0,1,.2-.2h0a.2.2,0,0,1,.2.2v2.27A.2.2,0,0,1,333.96,131.49Z" fill="#23141e"/>
        </g>
      </g>
      <g id="Group_62" data-name="Group 62">
        <path id="Path_234" data-name="Path 234" d="M333.57,108.59l13.85-8.05v18.69l-13.85,8.05Z" fill="#0049b2"/>
        <path id="Path_235" data-name="Path 235" d="M298.19,72.07l-13.86,8.05,49.24,28.47,13.85-8.05Z" fill="#1d76e1"/>
        <path id="Path_236" data-name="Path 236" d="M284.33,80.12V98.81l49.24,28.47V108.59Z" fill="#0e58d7"/>
        <path id="Path_237" data-name="Path 237" d="M285.05,81.3V98.55l47.9,27.7V109l-5.31-3.07Z" fill="#e6f2fb"/>
      </g>
      <g id="Group_71" data-name="Group 71">
        <g id="Group_67" data-name="Group 67">
          <path id="Path_238" data-name="Path 238" d="M335.87,133.9l3.18-2s-.72-1.63-.75-1.63-1.26-.75-1.78-.48a1.832,1.832,0,0,0-.83,1.62,20.769,20.769,0,0,0,.19,2.49Z" fill="#98c2e2"/>
          <g id="Group_64" data-name="Group 64">
            <path id="Path_239" data-name="Path 239" d="M343.69,135.57a6.448,6.448,0,0,0-2.7-5.15,3.927,3.927,0,0,0-1.53-.34,4.434,4.434,0,0,0-2.03.97,2.459,2.459,0,0,0-.89,1.6l3.03,6.23a1.588,1.588,0,0,0,1.45.06,7.708,7.708,0,0,0,1.24-.7,3,3,0,0,0,1.04-1,3.088,3.088,0,0,0,.22-.52,3.525,3.525,0,0,0,.16-1.14Z" fill="#35212d"/>
            <path id="Path_240" data-name="Path 240" d="M336.46,133.51a6.448,6.448,0,0,0,2.7,5.15c1.49.86,2.7-.05,2.7-2.04a6.448,6.448,0,0,0-2.7-5.15C337.67,130.61,336.46,131.52,336.46,133.51Z" fill="#4f3745"/>
            <path id="Path_241" data-name="Path 241" d="M336.96,133.87a5.105,5.105,0,0,0,2.12,4.06c1.17.68,2.12-.04,2.12-1.61a5.09,5.09,0,0,0-2.12-4.06C337.91,131.58,336.96,132.3,336.96,133.87Z" fill="#35212d"/>
            <path id="Path_242" data-name="Path 242" d="M337.55,134.17a3.879,3.879,0,0,0,1.6,3.07c.89.51,1.6-.03,1.6-1.21a3.879,3.879,0,0,0-1.6-3.07C338.26,132.45,337.55,132.99,337.55,134.17Z" fill="#e6f2fb"/>
            <g id="Group_63" data-name="Group 63">
              <path id="Path_243" data-name="Path 243" d="M339.1,133.2a3.435,3.435,0,0,1,1.44,2.75c0,1.06-.65,1.55-1.44,1.09a3.462,3.462,0,0,1-1.44-2.75C337.66,133.23,338.31,132.74,339.1,133.2Zm.31.36a1.358,1.358,0,0,0-.3-.24.8.8,0,0,0-.53-.15.236.236,0,0,0-.15.07c-.04.05-.04.11.01.21s.12.23.18.32c.03.05.05.03.12.03a.541.541,0,0,1,.19.03,1.59,1.59,0,0,1,.32.19c.05.04.07.03.09,0a1.035,1.035,0,0,0,.12-.26.223.223,0,0,0-.05-.21Zm-1.08,1.12a1.831,1.831,0,0,0,.77,1.47c.42.24.77-.02.77-.58a1.846,1.846,0,0,0-.77-1.47C338.68,133.86,338.33,134.12,338.33,134.68Zm2,.44a2.573,2.573,0,0,0-.3-.78,2.039,2.039,0,0,0-.25-.38c-.07-.06-.11-.04-.13.02a1.4,1.4,0,0,0-.09.29.216.216,0,0,0,.04.14,2.388,2.388,0,0,1,.23.43c.03.07.07.19.1.29s.03.15.07.18a1.788,1.788,0,0,0,.24.15c.07.04.11.03.11-.06a.96.96,0,0,0-.03-.27Zm-.32,1.83a.891.891,0,0,0,.21-.19.95.95,0,0,0,.19-.57,1.185,1.185,0,0,0-.02-.27c-.02-.1-.06-.15-.13-.17a.93.93,0,0,0-.24-.05c-.04,0-.03.05-.04.13a1.087,1.087,0,0,1-.06.23.767.767,0,0,1-.18.25.123.123,0,0,0-.02.12c.04.13.09.27.14.39.03.08.08.13.14.13Zm-1.33-.42a1.566,1.566,0,0,0,.17.21,1.011,1.011,0,0,0,.55.31.48.48,0,0,0,.29.01c.05-.04.04-.11.01-.19a2.588,2.588,0,0,0-.17-.38c-.02-.04-.05-.08-.09-.08a.708.708,0,0,1-.31-.08,1.32,1.32,0,0,1-.2-.13c-.07-.05-.1-.09-.12-.07a.848.848,0,0,0-.14.19c-.04.06-.04.12.02.21Zm-.8-1.3a2.61,2.61,0,0,0,.35.76,1.386,1.386,0,0,0,.17.21c.07.06.1.04.13-.03a1.7,1.7,0,0,0,.06-.28c0-.05-.03-.08-.08-.17s-.11-.2-.14-.28a3.312,3.312,0,0,1-.14-.47.155.155,0,0,0-.07-.12,1.215,1.215,0,0,0-.27-.15c-.05-.02-.1-.01-.1.08a2.086,2.086,0,0,0,.1.45Zm0-.73a.677.677,0,0,0,.27.07c.03,0,.05,0,.06-.07a1.359,1.359,0,0,1,.06-.38.81.81,0,0,1,.1-.18c.04-.06.07-.06.05-.12a2.375,2.375,0,0,0-.12-.35c-.04-.1-.08-.15-.14-.14a.224.224,0,0,0-.15.08.91.91,0,0,0-.23.52,1.139,1.139,0,0,0-.02.4.2.2,0,0,0,.13.17Z" fill="#fff"/>
              <path id="Path_244" data-name="Path 244" d="M339.02,134.39a1.473,1.473,0,0,1,.62,1.19c0,.46-.28.67-.62.47a1.473,1.473,0,0,1-.62-1.19C338.4,134.4,338.68,134.19,339.02,134.39Z" fill="#badaf6"/>
              <path id="Path_245" data-name="Path 245" d="M340.24,135.46a1.574,1.574,0,0,1-.24-.15c-.04-.03-.04-.07-.07-.18s-.07-.22-.1-.29a4.037,4.037,0,0,0-.23-.43.216.216,0,0,1-.04-.14,1.1,1.1,0,0,1,.09-.29c.02-.05.06-.07.13-.02a2.039,2.039,0,0,1,.25.38,2.7,2.7,0,0,1,.3.78,1.574,1.574,0,0,1,.03.27c0,.09-.04.1-.11.06Z" fill="#4f3745"/>
              <path id="Path_246" data-name="Path 246" d="M339.34,134.03a.066.066,0,0,1-.09,0,1.231,1.231,0,0,0-.32-.19.582.582,0,0,0-.19-.03c-.07,0-.09.02-.12-.03a3.578,3.578,0,0,1-.18-.32c-.05-.1-.06-.16-.01-.21a.236.236,0,0,1,.15-.07.779.779,0,0,1,.53.15,1.154,1.154,0,0,1,.3.24.26.26,0,0,1,.05.21.893.893,0,0,1-.12.26Z" fill="#4f3745"/>
              <path id="Path_247" data-name="Path 247" d="M337.78,133.93a.91.91,0,0,1,.23-.52.278.278,0,0,1,.15-.08c.06,0,.1.04.14.14a3.592,3.592,0,0,1,.12.35c.01.06-.01.06-.05.12a.811.811,0,0,0-.1.18,1.359,1.359,0,0,0-.06.38c0,.06-.03.07-.06.07a.98.98,0,0,1-.27-.07.242.242,0,0,1-.13-.17,1.989,1.989,0,0,1,.02-.4Z" fill="#4f3745"/>
              <path id="Path_248" data-name="Path 248" d="M337.88,134.71a.914.914,0,0,1,.27.15.176.176,0,0,1,.07.12,3.308,3.308,0,0,0,.14.47c.03.08.09.18.14.28s.08.12.08.17a1.7,1.7,0,0,1-.06.28c-.02.08-.06.09-.13.03a.771.771,0,0,1-.17-.21,2.61,2.61,0,0,1-.35-.76,2.741,2.741,0,0,1-.1-.45c0-.09.05-.1.1-.08Z" fill="#4f3745"/>
              <path id="Path_249" data-name="Path 249" d="M338.8,136.14a.642.642,0,0,1,.12.07,1.319,1.319,0,0,0,.2.13,1.179,1.179,0,0,0,.31.08c.04,0,.07.03.09.08a3.168,3.168,0,0,1,.17.38c.03.08.04.15-.01.19a.578.578,0,0,1-.29-.01,1.09,1.09,0,0,1-.55-.31.784.784,0,0,1-.17-.21c-.06-.09-.06-.15-.02-.21a1.33,1.33,0,0,1,.14-.19Z" fill="#4f3745"/>
              <path id="Path_250" data-name="Path 250" d="M339.74,136.31a.9.9,0,0,0,.18-.25,1.84,1.84,0,0,0,.06-.23c.02-.08,0-.13.04-.13a1.026,1.026,0,0,1,.24.05c.07.02.11.06.13.17a1.141,1.141,0,0,1,.02.27.919.919,0,0,1-.19.57c-.06.09-.17.19-.21.19-.06,0-.11-.06-.14-.13a2.034,2.034,0,0,1-.14-.39c-.01-.05-.02-.09.02-.12Z" fill="#4f3745"/>
            </g>
          </g>
          <g id="Group_66" data-name="Group 66">
            <g id="Group_65" data-name="Group 65">
              <path id="Path_251" data-name="Path 251" d="M343.73,130.11l-.81-.47h0l-2.21-1.28h0l-.44-.25a1.2,1.2,0,0,0-1.38-.03h0l-2.72,1.59a1.341,1.341,0,0,1,1.07.12c.13.06.45.23.88.47,1.12.65,2,1.16,2.26,1.29.11.06.21.12.32.19a4.841,4.841,0,0,1,1.79,2.12,13.4,13.4,0,0,1,.44,2.75l2.75-1.6v-1.18a4.657,4.657,0,0,0-1.95-3.72Z" fill="#badaf6"/>
              <path id="Path_252" data-name="Path 252" d="M336.17,129.68a.157.157,0,0,0-.08.05Z" fill="#badaf6"/>
            </g>
            <path id="Path_253" data-name="Path 253" d="M340.06,131.18l-2.55-1.47c-1.07-.62-1.95.04-1.95,1.47v2.55l.3.17v-2.55c0-1.21.74-1.77,1.65-1.24l2.55,1.47v-.4Z" fill="#e6f2fb"/>
            <path id="Path_254" data-name="Path 254" d="M340.98,131.71l-3.04-1.75v.4l1.09.63h0l1.95,1.12a3.929,3.929,0,0,1,1.65,3.14v1.18l.3.17v-1.18a4.657,4.657,0,0,0-1.95-3.72Z" fill="#e6f2fb"/>
          </g>
        </g>
        <path id="Path_255" data-name="Path 255" d="M358.02,115.01a5.516,5.516,0,0,0-2.3-2.93l-6.09-3.52v6.82L341.55,120l4.88,18.94,12.98-7.41s.01-8.25.01-9.55a21.854,21.854,0,0,0-1.4-6.97Z" fill="#ffc033"/>
        <path id="Path_256" data-name="Path 256" d="M335.57,128.23s5.27,2.82,6.7,3.68a2.683,2.683,0,0,1,1.17,2.6v2.71l2.98,1.72s.01-8.25.01-9.55a21.854,21.854,0,0,0-1.4-6.97,5.516,5.516,0,0,0-2.3-2.93l-7.16-4.04v12.78Z" fill="#f79e00"/>
        <path id="Path_257" data-name="Path 257" d="M348.67,107.99l-13.1,7.46,8.03,4.67,12.94-7.45a7.746,7.746,0,0,0-1.41-.93c-1.3-.71-6.45-3.75-6.45-3.75Z" fill="#fdd03e"/>
        <g id="Group_68" data-name="Group 68">
          <path id="Path_258" data-name="Path 258" d="M343.95,126.42c-.92-3.47-2.01-4.41-3.49-5.28-1.02-.6-2.06-1.17-2.83-1.6v4.35l6.55,3.78a.882.882,0,0,0-.02-.17c-.06-.36-.11-.73-.2-1.08Z" fill="#4f3745"/>
          <path id="Path_259" data-name="Path 259" d="M344.51,124.3a7.685,7.685,0,0,0-2.22-4,43.724,43.724,0,0,0-4.66-2.72v1.96c.77.43,1.81,1,2.83,1.6,1.48.87,2.57,1.81,3.49,5.28.09.35.14.72.2,1.08a1.5,1.5,0,0,0,.02.17l1.12.65a24.128,24.128,0,0,0-.78-4.01Z" fill="#35212d"/>
        </g>
        <path id="Path_260" data-name="Path 260" d="M338.84,117.77l.12,8.47.59.44-.28-8.56Z" fill="#f79e00"/>
        <g id="Group_69" data-name="Group 69">
          <path id="Path_261" data-name="Path 261" d="M357.37,115.66c-.04-.11-.07-.21-.11-.31a6.209,6.209,0,0,0-1.1-1.91l-1,.59a6.652,6.652,0,0,1,1.15,2.36c.08.28.16.56.24.85a27.5,27.5,0,0,1,.73,3.7,50,50,0,0,0-5.81,3.35,16.229,16.229,0,0,0-3.92,3.12c.04.4.07.8.08,1.19l11.02-6.47a21.488,21.488,0,0,0-1.29-6.47Z" fill="#35212d"/>
          <path id="Path_262" data-name="Path 262" d="M356.56,117.25c-.08-.29-.16-.57-.24-.85a6.653,6.653,0,0,0-1.15-2.36L345.15,120a5.92,5.92,0,0,1,.62.89,6.757,6.757,0,0,1,.48,1.02,24.5,24.5,0,0,1,1.32,5.51,16.039,16.039,0,0,1,3.92-3.12,48.6,48.6,0,0,1,5.81-3.35,31.016,31.016,0,0,0-.73-3.7Z" fill="#4f3745"/>
          <path id="Path_263" data-name="Path 263" d="M357.26,115.35a6.209,6.209,0,0,0-1.1-1.91l-1,.59-10.02,5.96a5.92,5.92,0,0,1,.62.89,25.74,25.74,0,0,0,8.84-3.36c.59-.35,1.16-.73,1.71-1.13.13-.1.27-.19.41-.29.19-.14.42-.29.65-.45-.04-.11-.07-.21-.11-.31Z" fill="#35212d"/>
        </g>
        <path id="Path_264" data-name="Path 264" d="M337.13,124.25v1.24c.41.21,4.4,2.32,6.02,3.18a1.777,1.777,0,0,1,1.21,1.91v4.65l.43-.29s.03-4.87-.04-5.74c-.05-.56-.48-.92-1.15-1.31-.37-.22-6.46-3.65-6.46-3.65Z" fill="#e27b00"/>
        <path id="Path_265" data-name="Path 265" d="M357.16,124.33l-7.98,4.61v5.48l7.98-4.61Z" fill="#f79e00"/>
        <path id="Path_266" data-name="Path 266" d="M357.9,129.39l-9.11,5.25v-.43l9.11-5.26Z" fill="#35212d"/>
        <path id="Path_267" data-name="Path 267" d="M357.9,128.1l-9.11,5.26v-.44l9.11-5.25Z" fill="#35212d"/>
        <path id="Path_268" data-name="Path 268" d="M357.9,126.86l-9.11,5.26v-.44l9.11-5.26Z" fill="#35212d"/>
        <path id="Path_269" data-name="Path 269" d="M347.55,131.34v3.23c0,.47.28.68.63.48l1.76-1.02a7.242,7.242,0,0,0-.66-2.38c-.53-1-1.73-.31-1.73-.31Z" fill="#e6f2fb"/>
        <path id="Path_270" data-name="Path 270" d="M348.03,131.72v2.37c0,.34.21.5.47.35l1.29-.75a5.354,5.354,0,0,0-.49-1.75c-.39-.73-1.27-.23-1.27-.23Z" fill="#fff"/>
        <path id="Path_271" data-name="Path 271" d="M358.67,125.08v3.06a1.5,1.5,0,0,1-.63,1.21l-1.55.89a11.1,11.1,0,0,1,.54-3.11,3.211,3.211,0,0,1,1.64-2.05Z" fill="#e6f2fb"/>
        <path id="Path_272" data-name="Path 272" d="M358.37,126.07v2.1a1.047,1.047,0,0,1-.44.83l-1.06.61a7.673,7.673,0,0,1,.37-2.14,2.245,2.245,0,0,1,1.12-1.41Z" fill="#fff"/>
        <path id="Path_273" data-name="Path 273" d="M345.14,136.42v1.79a.727.727,0,0,0,.46.68,2.026,2.026,0,0,0,1.79-.07c1.12-.64,10.11-5.77,11.06-6.31s1.35-.71,1.43-1.91c.12-1.81-.47-2.24-.47-2.24l-.08.69-12,6.95a1.96,1.96,0,0,1-1.77-.01c-.42-.19-.43.16-.43.45Z" fill="#0e58d7"/>
        <path id="Path_274" data-name="Path 274" d="M349.87,135.54l-1.92,1.12v1.41l1.92-1.12Z" fill="#ffc033"/>
        <path id="Path_275" data-name="Path 275" d="M359.36,129.88l-1.92,1.11v1.41l1.92-1.11Z" fill="#ffc033"/>
        <path id="Path_276" data-name="Path 276" d="M352.09,134.51l-1.92,1.12v.89l1.92-1.11Z" fill="#35212d"/>
        <path id="Path_277" data-name="Path 277" d="M357.12,131.58l-1.92,1.11v.9l1.92-1.12Z" fill="#35212d"/>
        <path id="Path_278" data-name="Path 278" d="M353.34,133.81l-.75.44v.87l.75-.44Z" fill="#35212d"/>
        <path id="Path_279" data-name="Path 279" d="M354.66,133.02l-.75.44v.87l.75-.43Z" fill="#35212d"/>
        <path id="Path_280" data-name="Path 280" d="M348.54,136.57a.9.9,0,0,0-.37.71c0,.28.17.4.37.28a.9.9,0,0,0,.37-.71C348.91,136.57,348.74,136.45,348.54,136.57Z" fill="#fff"/>
        <path id="Path_281" data-name="Path 281" d="M358.83,130.4a.9.9,0,0,0-.37.71c0,.28.17.4.37.28a.9.9,0,0,0,.37-.71C359.2,130.4,359.03,130.28,358.83,130.4Z" fill="#fff"/>
        <path id="Path_282" data-name="Path 282" d="M349.41,136.08a.792.792,0,0,0-.33.63c0,.24.15.35.33.25a.808.808,0,0,0,.33-.63C349.74,136.09,349.59,135.98,349.41,136.08Z" fill="#fff"/>
        <path id="Path_283" data-name="Path 283" d="M357.95,130.99a.792.792,0,0,0-.33.63c0,.24.15.35.33.25a.792.792,0,0,0,.33-.63C358.28,131,358.13,130.89,357.95,130.99Z" fill="#fff"/>
        <path id="Path_284" data-name="Path 284" d="M337.63,128.58V117.57l-.94-.54v9.1c0,2,.94,2.44.94,2.44Z" fill="#e27b00"/>
        <path id="Path_285" data-name="Path 285" d="M338.22,128.75l.23.13c.11.06.19,0,.19-.15v-1.79a.482.482,0,0,0-.19-.37l-.23-.13c-.11-.06-.19,0-.19.15v1.79A.482.482,0,0,0,338.22,128.75Z" fill="#4f3745"/>
        <g id="Group_70" data-name="Group 70">
          <path id="Path_286" data-name="Path 286" d="M349.71,111.31v.23c0,.39.54.7,1.21.7s1.21-.32,1.21-.7v-.23H349.7Z" fill="#35212d"/>
          <path id="Path_287" data-name="Path 287" d="M352.14,111.32c0,.39-.54.7-1.21.7s-1.21-.32-1.21-.7.54-.7,1.21-.7S352.14,110.94,352.14,111.32Z" fill="#4f3745"/>
          <path id="Path_288" data-name="Path 288" d="M351.65,109.29H350.2l-.14,2.03c0,.28.39.5.86.5s.86-.22.86-.5l-.14-2.03Z" fill="#0e58d7"/>
          <ellipse id="Ellipse_2" data-name="Ellipse 2" cx="0.73" cy="0.42" rx="0.73" ry="0.42" transform="translate(350.19 108.87)" fill="#1d76e1"/>
        </g>
      </g>
      <path id="Path_289" data-name="Path 289" d="M308.28,111.98a20.359,20.359,0,0,0,11.8,1.36,17.856,17.856,0,0,0,10.32-5.78l2.55,1.44v17.25l-24.67-14.27Z" fill="#fdd03e"/>
    </g>
    <g id="Group_73" data-name="Group 73">
      <path id="Path_290" data-name="Path 290" d="M288.5,97.15V86.71l4.9,2.83v1.99l-3.14-1.81v2.1l2.67,1.54v1.97l-2.67-1.54v2.4l3.26,1.88v1.99l-5.02-2.9Z" fill="#0049b2"/>
      <path id="Path_291" data-name="Path 291" d="M294.29,100.5l2.18-4.11-2.04-6.26,1.97,1.14.68,2.37c.09.3.18.61.26.93s.19.68.3,1.08l.05.03c.09-.28.17-.53.26-.76s.17-.44.25-.63l.62-1.61,1.89,1.09-2.03,4.02,2.16,6.5-1.97-1.14-.78-2.58c-.1-.33-.19-.66-.28-.99s-.19-.68-.31-1.07l-.05-.03c-.09.27-.18.51-.26.74s-.18.45-.26.67l-.73,1.71-1.9-1.1Z" fill="#0049b2"/>
      <path id="Path_292" data-name="Path 292" d="M301.89,104.89V94.45L304.58,96a7.424,7.424,0,0,1,1.21.87,5.947,5.947,0,0,1,.99,1.13,5.707,5.707,0,0,1,.67,1.43,5.994,5.994,0,0,1,.25,1.74,3.294,3.294,0,0,1-.25,1.44,1.4,1.4,0,0,1-.67.72,1.569,1.569,0,0,1-.97.08,3.867,3.867,0,0,1-1.18-.47l-.97-.56v3.54l-1.77-1.02Zm1.77-4.4.87.5c.96.55,1.44.28,1.44-.83a2.457,2.457,0,0,0-.38-1.38,3.229,3.229,0,0,0-1.11-.97l-.82-.47v3.16Z" fill="#0049b2"/>
      <path id="Path_293" data-name="Path 293" d="M312.24,111.05a5.877,5.877,0,0,1-1.45-1.21,7.459,7.459,0,0,1-1.12-1.73,10.465,10.465,0,0,1-.73-2.13,11.335,11.335,0,0,1-.26-2.44,7.5,7.5,0,0,1,.26-2.13,2.554,2.554,0,0,1,.73-1.26,1.6,1.6,0,0,1,1.12-.39,3.057,3.057,0,0,1,1.45.48,5.831,5.831,0,0,1,1.45,1.2,7.263,7.263,0,0,1,1.12,1.7,10.074,10.074,0,0,1,.73,2.11,11.149,11.149,0,0,1,.26,2.42,7.625,7.625,0,0,1-.26,2.14,2.759,2.759,0,0,1-.73,1.29,1.588,1.588,0,0,1-1.12.43,2.9,2.9,0,0,1-1.45-.46Zm0-2.03a.852.852,0,0,0,1.27-.19,3.989,3.989,0,0,0,.47-2.24,7.2,7.2,0,0,0-.47-2.72,3.157,3.157,0,0,0-1.27-1.62c-.54-.31-.96-.26-1.27.15a3.739,3.739,0,0,0-.47,2.18,7.674,7.674,0,0,0,.47,2.78A3.186,3.186,0,0,0,312.24,109.02Z" fill="#0049b2"/>
      <path id="Path_294" data-name="Path 294" d="M317.27,113.77V103.33l2.82,1.63a6.935,6.935,0,0,1,1.17.84,5.906,5.906,0,0,1,.96,1.09,5.482,5.482,0,0,1,.65,1.38,5.61,5.61,0,0,1,.24,1.69,2.935,2.935,0,0,1-.38,1.68,1.193,1.193,0,0,1-1.02.53l1.78,5.21-1.98-1.14-1.5-4.63-.97-.56v3.76l-1.77-1.02Zm1.77-4.62.91.53c.46.27.82.34,1.06.22s.37-.44.37-.95a2.16,2.16,0,0,0-.37-1.29,3.356,3.356,0,0,0-1.06-.92l-.91-.53v2.93Z" fill="#0049b2"/>
      <path id="Path_295" data-name="Path 295" d="M325.95,118.78v-8.46l-2.15-1.24v-1.99l6.08,3.51v1.99l-2.15-1.24v8.46l-1.78-1.03Z" fill="#0049b2"/>
    </g>
  </g>
</svg>
