<svg xmlns="http://www.w3.org/2000/svg" width="75.431" height="62.438" viewBox="0 0 75.431 62.438">
  <g id="Group_1190" data-name="Group 1190" transform="translate(-285.079 -12.77)">
    <g id="Group_35" data-name="Group 35">
      <g id="Group_5" data-name="Group 5">
        <path id="Path_1" data-name="Path 1" d="M287.76,40.2l3.5-2.2s-.8-1.8-.83-1.8-1.39-.83-1.96-.53a2.02,2.02,0,0,0-.92,1.78,21.467,21.467,0,0,0,.21,2.74Z" fill="#98c2e2"/>
        <g id="Group_2" data-name="Group 2">
          <path id="Path_2" data-name="Path 2" d="M296.36,42.03a7.124,7.124,0,0,0-2.97-5.68,4.345,4.345,0,0,0-1.68-.38,4.933,4.933,0,0,0-2.24,1.07,2.709,2.709,0,0,0-.98,1.76l3.34,6.85a1.749,1.749,0,0,0,1.59.07,8.34,8.34,0,0,0,1.36-.77,3.362,3.362,0,0,0,1.15-1.1c.08-.15.21-.46.25-.57a3.968,3.968,0,0,0,.18-1.25Z" fill="#35212d"/>
          <path id="Path_3" data-name="Path 3" d="M288.4,39.76a7.124,7.124,0,0,0,2.97,5.68c1.64.95,2.97-.06,2.97-2.25a7.124,7.124,0,0,0-2.97-5.68C289.73,36.56,288.4,37.57,288.4,39.76Z" fill="#4f3745"/>
          <path id="Path_4" data-name="Path 4" d="M288.95,40.16a5.619,5.619,0,0,0,2.34,4.47c1.29.75,2.34-.05,2.34-1.77a5.619,5.619,0,0,0-2.34-4.47C290,37.64,288.95,38.44,288.95,40.16Z" fill="#35212d"/>
          <path id="Path_5" data-name="Path 5" d="M289.6,40.49a4.242,4.242,0,0,0,1.77,3.38c.98.56,1.77-.03,1.77-1.34a4.227,4.227,0,0,0-1.77-3.38C290.39,38.59,289.6,39.18,289.6,40.49Z" fill="#e6f2fb"/>
          <g id="Group_1" data-name="Group 1">
            <path id="Path_6" data-name="Path 6" d="M291.31,39.43a3.793,3.793,0,0,1,1.59,3.03c0,1.17-.71,1.71-1.59,1.2a3.793,3.793,0,0,1-1.59-3.03C289.72,39.46,290.43,38.92,291.31,39.43Zm.34.39a1.292,1.292,0,0,0-.34-.26.886.886,0,0,0-.59-.16.249.249,0,0,0-.17.08c-.05.05-.04.12.02.23s.13.25.2.36c.04.05.06.03.13.04a.464.464,0,0,1,.21.04,1.476,1.476,0,0,1,.35.21c.05.04.08.03.1,0a1.107,1.107,0,0,0,.13-.29.266.266,0,0,0-.05-.23Zm-1.19,1.23a2,2,0,0,0,.85,1.61c.47.27.85-.02.85-.64a2,2,0,0,0-.85-1.61C290.84,40.14,290.46,40.43,290.46,41.05Zm2.2.49a3.22,3.22,0,0,0-.33-.86,2.113,2.113,0,0,0-.28-.42c-.08-.06-.12-.04-.14.02a1.339,1.339,0,0,0-.1.32.241.241,0,0,0,.04.15,2.824,2.824,0,0,1,.26.47c.04.08.07.21.11.32s.03.16.07.19a1.69,1.69,0,0,0,.27.17c.08.04.12.03.12-.07a1.163,1.163,0,0,0-.03-.3Zm-.35,2.01a.87.87,0,0,0,.23-.21,1.071,1.071,0,0,0,.21-.63,1.322,1.322,0,0,0-.02-.29.2.2,0,0,0-.14-.18,1.98,1.98,0,0,0-.26-.06c-.04,0-.03.05-.05.14s-.04.19-.06.25a.841.841,0,0,1-.2.28c-.04.03-.03.08-.02.13a3.748,3.748,0,0,0,.16.43c.04.08.08.15.15.14Zm-1.46-.46a1.011,1.011,0,0,0,.19.23,1.221,1.221,0,0,0,.6.34.5.5,0,0,0,.32.01c.05-.04.05-.12.01-.21a2.256,2.256,0,0,0-.19-.42c-.03-.05-.06-.09-.1-.09a.86.86,0,0,1-.34-.08,1.076,1.076,0,0,1-.22-.15c-.08-.06-.11-.1-.14-.08a.7.7,0,0,0-.15.2.2.2,0,0,0,.02.23Zm-.89-1.43a2.785,2.785,0,0,0,.38.84,1.219,1.219,0,0,0,.19.23c.08.07.11.05.14-.04a2.055,2.055,0,0,0,.07-.31c0-.05-.03-.08-.09-.19a2.775,2.775,0,0,1-.15-.3,3.011,3.011,0,0,1-.15-.51.3.3,0,0,0-.08-.14,1.46,1.46,0,0,0-.3-.16c-.06-.02-.1-.01-.11.09a2.514,2.514,0,0,0,.11.49Zm.01-.8a.845.845,0,0,0,.29.08c.03,0,.06,0,.06-.08a.975.975,0,0,1,.18-.62c.04-.06.07-.07.06-.13a3.561,3.561,0,0,0-.13-.39c-.04-.11-.08-.16-.16-.16a.225.225,0,0,0-.16.08.994.994,0,0,0-.26.58,1.377,1.377,0,0,0-.02.44.268.268,0,0,0,.14.19Z" fill="#fff"/>
            <path id="Path_7" data-name="Path 7" d="M291.22,40.74a1.651,1.651,0,0,1,.69,1.31c0,.5-.31.74-.69.52a1.651,1.651,0,0,1-.69-1.31C290.53,40.76,290.84,40.52,291.22,40.74Z" fill="#badaf6"/>
            <path id="Path_8" data-name="Path 8" d="M292.57,41.91a2.292,2.292,0,0,1-.27-.17c-.04-.03-.04-.08-.07-.19a1.7,1.7,0,0,0-.11-.32,2.824,2.824,0,0,0-.26-.47.19.19,0,0,1-.04-.15,1,1,0,0,1,.1-.32c.03-.06.07-.08.14-.02a2.114,2.114,0,0,1,.28.42,2.9,2.9,0,0,1,.33.86,1.163,1.163,0,0,1,.03.3c0,.1-.04.11-.12.07Z" fill="#4f3745"/>
            <path id="Path_9" data-name="Path 9" d="M291.57,40.34a.081.081,0,0,1-.1,0,1.476,1.476,0,0,0-.35-.21.712.712,0,0,0-.21-.04c-.07,0-.1.02-.13-.04a3.238,3.238,0,0,1-.2-.36c-.06-.11-.07-.17-.02-.23a.338.338,0,0,1,.17-.08.946.946,0,0,1,.59.16,1.548,1.548,0,0,1,.34.26.266.266,0,0,1,.05.23.856.856,0,0,1-.13.29Z" fill="#4f3745"/>
            <path id="Path_10" data-name="Path 10" d="M289.85,40.23a.933.933,0,0,1,.26-.58.268.268,0,0,1,.16-.08c.07,0,.11.04.16.16a3.561,3.561,0,0,1,.13.39c.02.06-.02.07-.06.13a.781.781,0,0,0-.11.2,1.364,1.364,0,0,0-.07.42c0,.07-.03.08-.06.08a.789.789,0,0,1-.29-.08.268.268,0,0,1-.14-.19,1.754,1.754,0,0,1,.02-.44Z" fill="#4f3745"/>
            <path id="Path_11" data-name="Path 11" d="M289.97,41.08a1.458,1.458,0,0,1,.3.16.177.177,0,0,1,.08.14,3.011,3.011,0,0,0,.15.51c.03.08.1.2.15.3s.09.13.09.19a1.29,1.29,0,0,1-.07.31c-.03.09-.06.1-.14.04a1.219,1.219,0,0,1-.19-.23,2.785,2.785,0,0,1-.38-.84,2.514,2.514,0,0,1-.11-.49c0-.1.05-.11.11-.09Z" fill="#4f3745"/>
            <path id="Path_12" data-name="Path 12" d="M290.98,42.66a.554.554,0,0,1,.14.08,1.734,1.734,0,0,0,.22.15.86.86,0,0,0,.34.08c.05,0,.08.04.1.09.07.13.13.28.19.42.03.09.04.16-.01.21a.579.579,0,0,1-.32-.01,1.221,1.221,0,0,1-.6-.34,1.011,1.011,0,0,1-.19-.23.2.2,0,0,1-.02-.23,1.492,1.492,0,0,1,.15-.2Z" fill="#4f3745"/>
            <path id="Path_13" data-name="Path 13" d="M292.01,42.85a.841.841,0,0,0,.2-.28,1.146,1.146,0,0,0,.06-.25c.02-.09,0-.14.05-.14a.76.76,0,0,1,.26.06c.08.02.12.07.14.18a.9.9,0,0,1,.02.29,1.039,1.039,0,0,1-.21.63c-.07.1-.18.21-.23.21-.07,0-.12-.06-.15-.14a3.748,3.748,0,0,1-.16-.43c-.01-.05-.02-.1.02-.13Z" fill="#4f3745"/>
          </g>
        </g>
        <g id="Group_4" data-name="Group 4">
          <g id="Group_3" data-name="Group 3">
            <path id="Path_14" data-name="Path 14" d="M296.41,36.02l-.89-.51h0l-2.43-1.41h0l-.48-.28a1.32,1.32,0,0,0-1.52-.03h0l-2.99,1.75a1.465,1.465,0,0,1,1.17.13c.15.06.49.25.97.51,1.23.72,2.2,1.28,2.49,1.42l.36.21a5.264,5.264,0,0,1,1.97,2.34,26.643,26.643,0,0,1,.48,4.52l3.03-1.76v-2.8a5.138,5.138,0,0,0-2.14-4.09Z" fill="#badaf6"/>
            <path id="Path_15" data-name="Path 15" d="M288.09,35.54a.924.924,0,0,0-.09.05Z" fill="#badaf6"/>
          </g>
          <path id="Path_16" data-name="Path 16" d="M292.37,37.2l-2.8-1.62c-1.18-.68-2.14.04-2.14,1.62V40l.33.19v-2.8c0-1.33.81-1.95,1.81-1.37l2.8,1.62V37.2Z" fill="#e6f2fb"/>
          <path id="Path_17" data-name="Path 17" d="M293.38,37.78l-3.34-1.93v.44l1.2.69h0l2.14,1.23a4.346,4.346,0,0,1,1.81,3.46v2.8l.33.19v-2.8a5.138,5.138,0,0,0-2.14-4.09Z" fill="#e6f2fb"/>
        </g>
      </g>
      <g id="Group_8" data-name="Group 8">
        <path id="Path_18" data-name="Path 18" d="M290.46,21.79l-2.18.1,12.52-7.22,2.27-.15Z" fill="#ffc033"/>
        <g id="Group_7" data-name="Group 7">
          <path id="Path_19" data-name="Path 19" d="M295.87,38.55l-6.07-3.59a.677.677,0,0,0-.7,0l-.43.25-2.58-2.44s-.01-3.61-.01-4.91a9.819,9.819,0,0,1,1.5-5.31,2.314,2.314,0,0,1,2.89-.74l5.4,3V38.56Z" fill="#ffc033"/>
          <g id="Group_6" data-name="Group 6">
            <path id="Path_20" data-name="Path 20" d="M288.56,26.8c.93-2.4,2.01-2.09,3.49-1.25,1.02.58,2.06,1.21,2.83,1.68v4.35l-6.55-3.78a.464.464,0,0,1,.02-.14,6.622,6.622,0,0,1,.2-.85Z" fill="#4f3745"/>
            <path id="Path_21" data-name="Path 21" d="M288,24.04c.57-1.36,1.22-1.68,2.22-1.44a43.007,43.007,0,0,1,4.66,2.66v1.96c-.77-.46-1.81-1.09-2.83-1.68-1.48-.84-2.57-1.15-3.49,1.25a6.627,6.627,0,0,0-.2.85.786.786,0,0,1-.02.14l-1.12-.65a12.082,12.082,0,0,1,.78-3.1Z" fill="#35212d"/>
          </g>
          <path id="Path_22" data-name="Path 22" d="M293.38,23.65V31.7l.61.35V24Z" fill="#ffc033"/>
          <path id="Path_23" data-name="Path 23" d="M295.38,32.51v1.24c-.41-.27-3.05-1.99-4.67-3-.97-.6-1.21-.48-1.21.52v2.24l-.43-.78s-.03-2.48.04-3.27c.05-.51.48-.37,1.15.01.37.21,5.12,3.05,5.12,3.05Z" fill="#f79e00"/>
        </g>
        <path id="Path_24" data-name="Path 24" d="M308.48,30.3l-9.78-5.79s-.01-2.63-.01-3.93a9.819,9.819,0,0,1,1.5-5.31,2.314,2.314,0,0,1,2.89-.74l5.4,3V30.31Z" fill="#ffc033"/>
        <path id="Path_25" data-name="Path 25" d="M295.87,24.8l12.61-7.28-5.41-3-12.61,7.27Z" fill="#fdd03e"/>
        <path id="Path_26" data-name="Path 26" d="M308.48,17.52,295.87,24.8V38.55l12.61-7.28Z" fill="#f79e00"/>
      </g>
      <g id="Group_10" data-name="Group 10">
        <path id="Path_27" data-name="Path 27" d="M306.59,46.27l-10.25-5.92v3.53l10.25,5.92Z" fill="#35212d"/>
        <path id="Path_28" data-name="Path 28" d="M319.56,38.83l-12.97,7.44V49.8l12.97-7.43Z" fill="#23141e"/>
        <path id="Path_29" data-name="Path 29" d="M309.31,32.91l-12.97,7.44,10.25,5.92,12.97-7.44Z" fill="#4f3745"/>
        <g id="Group_9" data-name="Group 9">
          <path id="Path_30" data-name="Path 30" d="M297.28,43.97h0a.2.2,0,0,1-.2-.2V41.5a.2.2,0,0,1,.2-.2h0a.2.2,0,0,1,.2.2v2.27A.2.2,0,0,1,297.28,43.97Z" fill="#23141e"/>
          <path id="Path_31" data-name="Path 31" d="M298.46,44.61h0a.2.2,0,0,1-.2-.2V42.14a.2.2,0,0,1,.2-.2h0a.2.2,0,0,1,.2.2v2.27A.2.2,0,0,1,298.46,44.61Z" fill="#23141e"/>
          <path id="Path_32" data-name="Path 32" d="M299.64,45.36h0a.2.2,0,0,1-.2-.2V42.89a.2.2,0,0,1,.2-.2h0a.2.2,0,0,1,.2.2v2.27A.2.2,0,0,1,299.64,45.36Z" fill="#23141e"/>
          <path id="Path_33" data-name="Path 33" d="M300.83,46.01h0a.2.2,0,0,1-.2-.2V43.54a.2.2,0,0,1,.2-.2h0a.2.2,0,0,1,.2.2v2.27A.2.2,0,0,1,300.83,46.01Z" fill="#23141e"/>
          <path id="Path_34" data-name="Path 34" d="M302.02,46.7h0a.2.2,0,0,1-.2-.2V44.23a.2.2,0,0,1,.2-.2h0a.2.2,0,0,1,.2.2V46.5A.2.2,0,0,1,302.02,46.7Z" fill="#23141e"/>
          <path id="Path_35" data-name="Path 35" d="M303.2,47.34h0a.2.2,0,0,1-.2-.2V44.87a.2.2,0,0,1,.2-.2h0a.2.2,0,0,1,.2.2v2.27A.2.2,0,0,1,303.2,47.34Z" fill="#23141e"/>
          <path id="Path_36" data-name="Path 36" d="M304.38,48.1h0a.2.2,0,0,1-.2-.2V45.63a.2.2,0,0,1,.2-.2h0a.2.2,0,0,1,.2.2V47.9A.2.2,0,0,1,304.38,48.1Z" fill="#23141e"/>
          <path id="Path_37" data-name="Path 37" d="M305.57,48.74h0a.2.2,0,0,1-.2-.2V46.27a.2.2,0,0,1,.2-.2h0a.2.2,0,0,1,.2.2v2.27A.2.2,0,0,1,305.57,48.74Z" fill="#23141e"/>
        </g>
      </g>
      <path id="Path_38" data-name="Path 38" d="M289.07,34.51a.528.528,0,0,0-.25-.45l-2.74-1.73v-.29a.882.882,0,0,0-.76.45,4.848,4.848,0,0,0-.14,1.38c-.05.87-.13,2.1-.09,2.75.04.75.4.83,1.48,1.42.4.22.87.47.87.47a15.166,15.166,0,0,1,.02-1.55,2.084,2.084,0,0,1,.44-1.27,11.623,11.623,0,0,1,1.18-.75V34.5Z" fill="#35212d"/>
      <g id="Group_15" data-name="Group 15">
        <path id="Path_39" data-name="Path 39" d="M307.4,51.28l3.5-2.2s-.8-1.8-.83-1.8-1.39-.83-1.96-.53a2.042,2.042,0,0,0-.92,1.78,21.467,21.467,0,0,0,.21,2.74Z" fill="#98c2e2"/>
        <g id="Group_12" data-name="Group 12">
          <path id="Path_40" data-name="Path 40" d="M316.01,53.11a7.124,7.124,0,0,0-2.97-5.68,4.345,4.345,0,0,0-1.68-.38,4.933,4.933,0,0,0-2.24,1.07,2.709,2.709,0,0,0-.98,1.76l3.34,6.85a1.749,1.749,0,0,0,1.59.07,8.34,8.34,0,0,0,1.36-.77,3.362,3.362,0,0,0,1.15-1.1c.08-.15.21-.46.25-.57a3.968,3.968,0,0,0,.18-1.25Z" fill="#35212d"/>
          <path id="Path_41" data-name="Path 41" d="M308.05,50.84a7.124,7.124,0,0,0,2.97,5.68c1.64.95,2.97-.06,2.97-2.25a7.124,7.124,0,0,0-2.97-5.68C309.38,47.64,308.05,48.65,308.05,50.84Z" fill="#4f3745"/>
          <path id="Path_42" data-name="Path 42" d="M308.6,51.24a5.619,5.619,0,0,0,2.34,4.47c1.29.75,2.34-.05,2.34-1.77a5.619,5.619,0,0,0-2.34-4.47C309.65,48.72,308.6,49.52,308.6,51.24Z" fill="#35212d"/>
          <path id="Path_43" data-name="Path 43" d="M309.25,51.57a4.242,4.242,0,0,0,1.77,3.38c.98.56,1.77-.03,1.77-1.34a4.227,4.227,0,0,0-1.77-3.38C310.04,49.67,309.25,50.26,309.25,51.57Z" fill="#e6f2fb"/>
          <g id="Group_11" data-name="Group 11">
            <path id="Path_44" data-name="Path 44" d="M310.96,50.5a3.793,3.793,0,0,1,1.59,3.03c0,1.17-.71,1.71-1.59,1.2a3.793,3.793,0,0,1-1.59-3.03C309.37,50.53,310.08,49.99,310.96,50.5Zm.34.4a1.292,1.292,0,0,0-.34-.26.886.886,0,0,0-.59-.16.249.249,0,0,0-.17.08c-.05.05-.04.12.02.23s.13.25.2.36c.04.05.06.03.13.04a.464.464,0,0,1,.21.04,1.476,1.476,0,0,1,.35.21c.05.04.08.03.1,0a1.107,1.107,0,0,0,.13-.29.266.266,0,0,0-.05-.23Zm-1.19,1.23a2,2,0,0,0,.85,1.61c.47.26.85-.02.85-.64a2,2,0,0,0-.85-1.61C310.49,51.23,310.11,51.51,310.11,52.13Zm2.2.49a3.22,3.22,0,0,0-.33-.86,2.113,2.113,0,0,0-.28-.42c-.08-.06-.12-.04-.14.02a1.339,1.339,0,0,0-.1.32.241.241,0,0,0,.04.15,2.824,2.824,0,0,1,.26.47c.04.08.07.21.11.32s.03.16.07.19a1.69,1.69,0,0,0,.27.17c.08.04.12.03.12-.07a1.163,1.163,0,0,0-.03-.3Zm-.35,2.01a.87.87,0,0,0,.23-.21,1.071,1.071,0,0,0,.21-.63,1.322,1.322,0,0,0-.02-.29.2.2,0,0,0-.14-.18,1.98,1.98,0,0,0-.26-.06c-.04,0-.03.05-.05.14s-.04.19-.06.25a.841.841,0,0,1-.2.28c-.04.03-.03.08-.02.13a3.748,3.748,0,0,0,.16.43c.04.08.08.15.15.14Zm-1.46-.46a1.011,1.011,0,0,0,.19.23,1.221,1.221,0,0,0,.6.34.5.5,0,0,0,.32.01c.05-.04.05-.12.01-.21a2.256,2.256,0,0,0-.19-.42c-.03-.05-.06-.09-.1-.09a.825.825,0,0,1-.34-.08,1.076,1.076,0,0,1-.22-.15c-.08-.06-.11-.1-.14-.08a.7.7,0,0,0-.15.2.2.2,0,0,0,.02.23Zm-.89-1.43a2.785,2.785,0,0,0,.38.84,1.219,1.219,0,0,0,.19.23c.08.07.11.05.14-.04a2.055,2.055,0,0,0,.07-.31c0-.05-.03-.08-.09-.19a2.775,2.775,0,0,1-.15-.3,3.011,3.011,0,0,1-.15-.51.3.3,0,0,0-.08-.14,1.46,1.46,0,0,0-.3-.16c-.06-.02-.1-.01-.11.09a2.514,2.514,0,0,0,.11.49Zm0-.8a.845.845,0,0,0,.29.08c.03,0,.06,0,.06-.08a.975.975,0,0,1,.18-.62c.04-.06.07-.07.06-.13a3.561,3.561,0,0,0-.13-.39c-.04-.11-.08-.16-.16-.16a.225.225,0,0,0-.16.08.994.994,0,0,0-.26.58,1.377,1.377,0,0,0-.02.44.268.268,0,0,0,.14.19Z" fill="#fff"/>
            <path id="Path_45" data-name="Path 45" d="M310.87,51.81a1.651,1.651,0,0,1,.69,1.31c0,.5-.31.74-.69.52a1.651,1.651,0,0,1-.69-1.31C310.18,51.83,310.49,51.59,310.87,51.81Z" fill="#badaf6"/>
            <path id="Path_46" data-name="Path 46" d="M312.22,52.99a2.292,2.292,0,0,1-.27-.17c-.04-.03-.04-.08-.07-.19a1.7,1.7,0,0,0-.11-.32,2.824,2.824,0,0,0-.26-.47.19.19,0,0,1-.04-.15,1,1,0,0,1,.1-.32c.03-.06.07-.08.14-.02a2.114,2.114,0,0,1,.28.42,2.9,2.9,0,0,1,.33.86,1.163,1.163,0,0,1,.03.3c0,.1-.05.11-.12.07Z" fill="#4f3745"/>
            <path id="Path_47" data-name="Path 47" d="M311.22,51.42a.081.081,0,0,1-.1,0,1.476,1.476,0,0,0-.35-.21.712.712,0,0,0-.21-.04c-.07,0-.1.02-.13-.04a3.238,3.238,0,0,1-.2-.36c-.06-.11-.07-.17-.02-.23a.338.338,0,0,1,.17-.08.946.946,0,0,1,.59.16,1.548,1.548,0,0,1,.34.26.266.266,0,0,1,.05.23.856.856,0,0,1-.13.29Z" fill="#4f3745"/>
            <path id="Path_48" data-name="Path 48" d="M309.5,51.31a.933.933,0,0,1,.26-.58.268.268,0,0,1,.16-.08c.07,0,.11.04.16.16a3.561,3.561,0,0,1,.13.39c.02.06-.02.07-.06.13a.781.781,0,0,0-.11.2,1.364,1.364,0,0,0-.07.42c0,.07-.03.08-.06.08a.789.789,0,0,1-.29-.08.268.268,0,0,1-.14-.19,1.754,1.754,0,0,1,.02-.44Z" fill="#4f3745"/>
            <path id="Path_49" data-name="Path 49" d="M309.62,52.16a1.458,1.458,0,0,1,.3.16.177.177,0,0,1,.08.14,3.011,3.011,0,0,0,.15.51c.03.08.1.2.15.3s.09.13.09.19a2.051,2.051,0,0,1-.07.31c-.03.09-.06.1-.14.04a1.219,1.219,0,0,1-.19-.23,2.785,2.785,0,0,1-.38-.84,2.514,2.514,0,0,1-.11-.49c0-.1.05-.11.11-.09Z" fill="#4f3745"/>
            <path id="Path_50" data-name="Path 50" d="M310.63,53.74a.554.554,0,0,1,.14.08,1.734,1.734,0,0,0,.22.15.86.86,0,0,0,.34.08c.05,0,.08.04.1.09.07.13.13.28.19.42.03.09.04.16-.01.21a.579.579,0,0,1-.32-.01,1.221,1.221,0,0,1-.6-.34,1.011,1.011,0,0,1-.19-.23.2.2,0,0,1-.02-.23,1.492,1.492,0,0,1,.15-.2Z" fill="#4f3745"/>
            <path id="Path_51" data-name="Path 51" d="M311.66,53.92a.841.841,0,0,0,.2-.28,1.146,1.146,0,0,0,.06-.25c.02-.09,0-.14.05-.14a.76.76,0,0,1,.26.06c.08.02.12.07.14.18a.9.9,0,0,1,.02.29,1.039,1.039,0,0,1-.21.63c-.07.1-.18.21-.23.21-.07,0-.12-.06-.15-.14a3.748,3.748,0,0,1-.16-.43c-.01-.05-.02-.1.02-.13Z" fill="#4f3745"/>
          </g>
        </g>
        <g id="Group_14" data-name="Group 14">
          <g id="Group_13" data-name="Group 13">
            <path id="Path_52" data-name="Path 52" d="M316.06,47.1l-.89-.51h0l-2.43-1.41h0l-.48-.28a1.32,1.32,0,0,0-1.52-.03h0l-2.99,1.75a1.463,1.463,0,0,1,1.17.13c.15.06.49.25.97.51,1.23.72,2.2,1.28,2.49,1.42l.36.21a5.264,5.264,0,0,1,1.97,2.34,26.643,26.643,0,0,1,.48,4.52l3.03-1.76v-2.8a5.138,5.138,0,0,0-2.14-4.09Z" fill="#badaf6"/>
            <path id="Path_53" data-name="Path 53" d="M307.74,46.62a.924.924,0,0,0-.09.05Z" fill="#badaf6"/>
          </g>
          <path id="Path_54" data-name="Path 54" d="M312.02,48.28l-2.8-1.62c-1.18-.68-2.14.04-2.14,1.62v2.8l.33.19v-2.8c0-1.33.81-1.95,1.81-1.37l2.8,1.62v-.44Z" fill="#e6f2fb"/>
          <path id="Path_55" data-name="Path 55" d="M313.03,48.86l-3.34-1.93v.44l1.2.69h0l2.14,1.23a4.346,4.346,0,0,1,1.81,3.46v2.8l.33.19v-2.8a5.138,5.138,0,0,0-2.14-4.09Z" fill="#e6f2fb"/>
        </g>
      </g>
      <g id="Group_16" data-name="Group 16">
        <path id="Path_56" data-name="Path 56" d="M316.02,52.06l6.72-3.86,3.96,5.49-6.77,3.91Z" fill="#23141e"/>
        <path id="Path_57" data-name="Path 57" d="M316.6,55.9l2.83,1.63c.45.26.82-.02.82-.62V55.28a2.017,2.017,0,0,0-.82-1.58l-2.83-1.63c-.45-.26-.82.02-.82.62v1.63A2.017,2.017,0,0,0,316.6,55.9Z" fill="#35212d"/>
        <path id="Path_58" data-name="Path 58" d="M316.97,55.62l2.09,1.21c.33.19.61-.01.61-.46V55.16a1.434,1.434,0,0,0-.61-1.16l-2.09-1.21c-.34-.19-.61.01-.61.46v1.21A1.434,1.434,0,0,0,316.97,55.62Z" fill="#23141e"/>
      </g>
      <g id="Group_18" data-name="Group 18">
        <path id="Path_59" data-name="Path 59" d="M331.16,60.65,320.9,54.73v3.53l10.26,5.93Z" fill="#35212d"/>
        <path id="Path_60" data-name="Path 60" d="M344.13,53.22l-12.97,7.43v3.54l12.97-7.44Z" fill="#23141e"/>
        <path id="Path_61" data-name="Path 61" d="M333.87,47.29,320.9,54.73l10.26,5.92,12.97-7.43Z" fill="#4f3745"/>
        <g id="Group_17" data-name="Group 17">
          <path id="Path_62" data-name="Path 62" d="M321.84,58.35h0a.2.2,0,0,1-.2-.2V55.88a.2.2,0,0,1,.2-.2h0a.2.2,0,0,1,.2.2v2.27A.2.2,0,0,1,321.84,58.35Z" fill="#23141e"/>
          <path id="Path_63" data-name="Path 63" d="M323.03,58.99h0a.2.2,0,0,1-.2-.2V56.52a.2.2,0,0,1,.2-.2h0a.2.2,0,0,1,.2.2v2.27A.2.2,0,0,1,323.03,58.99Z" fill="#23141e"/>
          <path id="Path_64" data-name="Path 64" d="M324.21,59.75h0a.2.2,0,0,1-.2-.2V57.28a.2.2,0,0,1,.2-.2h0a.2.2,0,0,1,.2.2v2.27A.2.2,0,0,1,324.21,59.75Z" fill="#23141e"/>
          <path id="Path_65" data-name="Path 65" d="M325.39,60.39h0a.2.2,0,0,1-.2-.2V57.92a.2.2,0,0,1,.2-.2h0a.2.2,0,0,1,.2.2v2.27A.2.2,0,0,1,325.39,60.39Z" fill="#23141e"/>
          <path id="Path_66" data-name="Path 66" d="M326.58,61.08h0a.2.2,0,0,1-.2-.2V58.61a.2.2,0,0,1,.2-.2h0a.2.2,0,0,1,.2.2v2.27A.2.2,0,0,1,326.58,61.08Z" fill="#23141e"/>
          <path id="Path_67" data-name="Path 67" d="M327.77,61.72h0a.2.2,0,0,1-.2-.2V59.25a.2.2,0,0,1,.2-.2h0a.2.2,0,0,1,.2.2v2.27A.2.2,0,0,1,327.77,61.72Z" fill="#23141e"/>
          <path id="Path_68" data-name="Path 68" d="M328.95,62.48h0a.2.2,0,0,1-.2-.2V60.01a.2.2,0,0,1,.2-.2h0a.2.2,0,0,1,.2.2v2.27A.2.2,0,0,1,328.95,62.48Z" fill="#23141e"/>
          <path id="Path_69" data-name="Path 69" d="M330.13,63.12h0a.2.2,0,0,1-.2-.2V60.65a.2.2,0,0,1,.2-.2h0a.2.2,0,0,1,.2.2v2.27A.2.2,0,0,1,330.13,63.12Z" fill="#23141e"/>
        </g>
      </g>
      <g id="Group_25" data-name="Group 25">
        <path id="Path_70" data-name="Path 70" d="M343.18,59.91l3.5-2.2s-.8-1.8-.83-1.8-1.39-.83-1.96-.53a2.02,2.02,0,0,0-.92,1.78,21.467,21.467,0,0,0,.21,2.74Z" fill="#98c2e2"/>
        <g id="Group_20" data-name="Group 20">
          <path id="Path_71" data-name="Path 71" d="M351.75,61.66a7.124,7.124,0,0,0-2.97-5.68,4.345,4.345,0,0,0-1.68-.38,4.933,4.933,0,0,0-2.24,1.07,2.709,2.709,0,0,0-.98,1.76l3.34,6.85a1.749,1.749,0,0,0,1.59.07,8.341,8.341,0,0,0,1.36-.77,3.362,3.362,0,0,0,1.15-1.1c.08-.15.21-.46.25-.57a3.968,3.968,0,0,0,.18-1.25Z" fill="#35212d"/>
          <path id="Path_72" data-name="Path 72" d="M343.78,59.39a7.124,7.124,0,0,0,2.97,5.68c1.64.95,2.97-.06,2.97-2.25a7.124,7.124,0,0,0-2.97-5.68C345.11,56.19,343.78,57.2,343.78,59.39Z" fill="#4f3745"/>
          <path id="Path_73" data-name="Path 73" d="M344.34,59.79a5.619,5.619,0,0,0,2.34,4.47c1.29.75,2.34-.05,2.34-1.77a5.619,5.619,0,0,0-2.34-4.47C345.39,57.27,344.34,58.07,344.34,59.79Z" fill="#35212d"/>
          <path id="Path_74" data-name="Path 74" d="M344.99,60.12a4.242,4.242,0,0,0,1.77,3.38c.98.56,1.77-.03,1.77-1.34a4.227,4.227,0,0,0-1.77-3.38C345.78,58.22,344.99,58.81,344.99,60.12Z" fill="#e6f2fb"/>
          <g id="Group_19" data-name="Group 19">
            <path id="Path_75" data-name="Path 75" d="M346.69,59.05a3.793,3.793,0,0,1,1.59,3.03c0,1.17-.71,1.71-1.59,1.2a3.793,3.793,0,0,1-1.59-3.03C345.1,59.08,345.81,58.54,346.69,59.05Zm.35.4a1.292,1.292,0,0,0-.34-.26.886.886,0,0,0-.59-.16.249.249,0,0,0-.17.08c-.05.05-.04.12.02.23s.13.25.2.36c.04.05.06.03.13.04a.464.464,0,0,1,.21.04,1.476,1.476,0,0,1,.35.21c.05.04.08.03.1,0a1.107,1.107,0,0,0,.13-.29.266.266,0,0,0-.05-.23Zm-1.19,1.23a2,2,0,0,0,.85,1.61c.47.27.85-.02.85-.64a2,2,0,0,0-.85-1.61C346.23,59.77,345.85,60.06,345.85,60.68Zm2.2.49a3.22,3.22,0,0,0-.33-.86,2.113,2.113,0,0,0-.28-.42c-.08-.06-.12-.04-.14.02a1.339,1.339,0,0,0-.1.32.241.241,0,0,0,.04.15,3.8,3.8,0,0,1,.26.47c.04.08.07.21.11.32s.03.16.07.19a1.69,1.69,0,0,0,.27.17c.08.04.12.03.12-.07a1.163,1.163,0,0,0-.03-.3Zm-.35,2.01a.87.87,0,0,0,.23-.21,1.071,1.071,0,0,0,.21-.63,1.322,1.322,0,0,0-.02-.29.2.2,0,0,0-.15-.18,1.98,1.98,0,0,0-.26-.06c-.04,0-.03.05-.05.14s-.04.19-.06.25a.841.841,0,0,1-.2.28c-.04.03-.03.08-.02.13a3.748,3.748,0,0,0,.16.43c.04.08.08.15.15.14Zm-1.47-.46a1.011,1.011,0,0,0,.19.23,1.221,1.221,0,0,0,.6.34.5.5,0,0,0,.32.01c.05-.04.05-.12.01-.2a2.256,2.256,0,0,0-.19-.42c-.03-.05-.06-.09-.1-.09a.825.825,0,0,1-.34-.08,1.076,1.076,0,0,1-.22-.15c-.08-.06-.11-.1-.14-.08a.7.7,0,0,0-.15.2.2.2,0,0,0,.02.23Zm-.88-1.43a2.785,2.785,0,0,0,.38.84,1.219,1.219,0,0,0,.19.23c.08.07.11.05.14-.04a2.055,2.055,0,0,0,.07-.31c0-.05-.03-.08-.09-.19a2.775,2.775,0,0,1-.15-.3,3.011,3.011,0,0,1-.15-.51.3.3,0,0,0-.08-.14,1.46,1.46,0,0,0-.3-.16c-.06-.02-.1-.01-.11.09a2.514,2.514,0,0,0,.11.49Zm0-.8a.845.845,0,0,0,.29.08c.03,0,.06,0,.06-.08a.975.975,0,0,1,.18-.62c.04-.06.07-.07.06-.13a3.561,3.561,0,0,0-.13-.39c-.04-.11-.08-.16-.16-.16a.225.225,0,0,0-.16.08.994.994,0,0,0-.26.58,1.377,1.377,0,0,0-.02.44.268.268,0,0,0,.14.19Z" fill="#fff"/>
            <path id="Path_76" data-name="Path 76" d="M346.6,60.37a1.651,1.651,0,0,1,.69,1.31c0,.5-.31.74-.69.52a1.651,1.651,0,0,1-.69-1.31C345.91,60.39,346.22,60.15,346.6,60.37Z" fill="#badaf6"/>
            <path id="Path_77" data-name="Path 77" d="M347.95,61.54a2.292,2.292,0,0,1-.27-.17c-.04-.03-.04-.08-.07-.19a1.7,1.7,0,0,0-.11-.32,2.824,2.824,0,0,0-.26-.47.19.19,0,0,1-.04-.15,1,1,0,0,1,.1-.32c.03-.06.07-.08.14-.02a2.114,2.114,0,0,1,.28.42,2.9,2.9,0,0,1,.33.86,1.163,1.163,0,0,1,.03.3c0,.1-.04.11-.12.07Z" fill="#4f3745"/>
            <path id="Path_78" data-name="Path 78" d="M346.96,59.97a.081.081,0,0,1-.1,0,1.476,1.476,0,0,0-.35-.21.712.712,0,0,0-.21-.04c-.07,0-.1.02-.13-.04a3.238,3.238,0,0,1-.2-.36c-.06-.11-.07-.17-.02-.23a.338.338,0,0,1,.17-.08.946.946,0,0,1,.59.16,1.548,1.548,0,0,1,.34.26.266.266,0,0,1,.05.23.856.856,0,0,1-.13.29Z" fill="#4f3745"/>
            <path id="Path_79" data-name="Path 79" d="M345.24,59.86a.933.933,0,0,1,.26-.58.268.268,0,0,1,.16-.08c.07,0,.11.04.16.16a3.561,3.561,0,0,1,.13.39c.02.06-.02.07-.06.13a.781.781,0,0,0-.11.2,1.364,1.364,0,0,0-.07.42c0,.07-.03.08-.06.08a.789.789,0,0,1-.29-.08.268.268,0,0,1-.14-.19,1.754,1.754,0,0,1,.02-.44Z" fill="#4f3745"/>
            <path id="Path_80" data-name="Path 80" d="M345.35,60.71a1.458,1.458,0,0,1,.3.16.177.177,0,0,1,.08.14,3.011,3.011,0,0,0,.15.51c.03.08.1.2.15.3s.09.13.09.19a2.051,2.051,0,0,1-.07.31c-.03.09-.06.1-.14.04a1.219,1.219,0,0,1-.19-.23,2.785,2.785,0,0,1-.38-.84,2.514,2.514,0,0,1-.11-.49c0-.1.05-.11.11-.09Z" fill="#4f3745"/>
            <path id="Path_81" data-name="Path 81" d="M346.37,62.29a.554.554,0,0,1,.14.08,1.734,1.734,0,0,0,.22.15.86.86,0,0,0,.34.08c.05,0,.08.04.1.09.07.13.13.28.19.42.03.09.04.16-.01.2a.579.579,0,0,1-.32-.01,1.221,1.221,0,0,1-.6-.34,1.011,1.011,0,0,1-.19-.23.2.2,0,0,1-.02-.23,1.492,1.492,0,0,1,.15-.2Z" fill="#4f3745"/>
            <path id="Path_82" data-name="Path 82" d="M347.4,62.47a.841.841,0,0,0,.2-.28,1.146,1.146,0,0,0,.06-.25c.02-.09,0-.14.05-.14a.76.76,0,0,1,.26.06c.08.02.12.07.15.18a.925.925,0,0,1,.02.29,1.039,1.039,0,0,1-.21.63c-.07.1-.18.21-.23.21-.07,0-.12-.06-.15-.14a3.748,3.748,0,0,1-.16-.43c-.01-.05-.02-.1.02-.13Z" fill="#4f3745"/>
          </g>
        </g>
        <g id="Group_22" data-name="Group 22">
          <path id="Path_83" data-name="Path 83" d="M358.16,65.42a7.124,7.124,0,0,0-2.97-5.68,4.345,4.345,0,0,0-1.68-.38,4.933,4.933,0,0,0-2.24,1.07,2.709,2.709,0,0,0-.98,1.76l3.34,6.85a1.749,1.749,0,0,0,1.59.07,8.341,8.341,0,0,0,1.36-.77,3.362,3.362,0,0,0,1.15-1.1c.08-.15.21-.46.25-.57a3.968,3.968,0,0,0,.18-1.25Z" fill="#35212d"/>
          <path id="Path_84" data-name="Path 84" d="M350.19,63.15a7.124,7.124,0,0,0,2.97,5.68c1.64.95,2.97-.06,2.97-2.25a7.124,7.124,0,0,0-2.97-5.68C351.52,59.95,350.19,60.96,350.19,63.15Z" fill="#4f3745"/>
          <path id="Path_85" data-name="Path 85" d="M350.75,63.55a5.619,5.619,0,0,0,2.34,4.47c1.29.75,2.34-.05,2.34-1.77a5.619,5.619,0,0,0-2.34-4.47C351.8,61.03,350.75,61.83,350.75,63.55Z" fill="#35212d"/>
          <path id="Path_86" data-name="Path 86" d="M351.4,63.88a4.242,4.242,0,0,0,1.77,3.38c.98.56,1.77-.03,1.77-1.34a4.227,4.227,0,0,0-1.77-3.38c-.98-.56-1.77.03-1.77,1.34Z" fill="#e6f2fb"/>
          <g id="Group_21" data-name="Group 21">
            <path id="Path_87" data-name="Path 87" d="M353.1,62.81a3.793,3.793,0,0,1,1.59,3.03c0,1.17-.71,1.71-1.59,1.2a3.793,3.793,0,0,1-1.59-3.03C351.51,62.84,352.22,62.3,353.1,62.81Zm.35.39a1.292,1.292,0,0,0-.34-.26.886.886,0,0,0-.59-.16.249.249,0,0,0-.17.08c-.05.05-.04.12.02.23s.13.25.2.36c.04.05.06.03.13.04a.464.464,0,0,1,.21.04,1.476,1.476,0,0,1,.35.21c.05.04.08.03.1,0a1.107,1.107,0,0,0,.13-.29.266.266,0,0,0-.05-.23Zm-1.19,1.24a2,2,0,0,0,.85,1.61c.47.27.85-.02.85-.64a2,2,0,0,0-.85-1.61C352.64,63.53,352.26,63.82,352.26,64.44Zm2.2.49a3.22,3.22,0,0,0-.33-.86,2.113,2.113,0,0,0-.28-.42c-.08-.06-.12-.04-.14.02a1.339,1.339,0,0,0-.1.32.241.241,0,0,0,.04.15,2.823,2.823,0,0,1,.26.47c.04.08.07.21.11.32s.03.16.07.19a1.69,1.69,0,0,0,.27.17c.08.04.12.03.12-.07a1.163,1.163,0,0,0-.03-.3Zm-.35,2.01a.87.87,0,0,0,.23-.21,1.071,1.071,0,0,0,.21-.63,1.322,1.322,0,0,0-.02-.29.2.2,0,0,0-.15-.18,1.98,1.98,0,0,0-.26-.06c-.04,0-.03.05-.05.14s-.04.19-.06.25a.963.963,0,0,1-.2.28c-.04.03-.03.08-.02.13a3.748,3.748,0,0,0,.16.43c.04.08.08.15.15.14Zm-1.46-.46a1.011,1.011,0,0,0,.19.23,1.221,1.221,0,0,0,.6.34.5.5,0,0,0,.32.01c.05-.04.05-.12.01-.2a2.256,2.256,0,0,0-.19-.42c-.03-.05-.06-.09-.1-.09a.86.86,0,0,1-.34-.08,1.075,1.075,0,0,1-.22-.15c-.08-.06-.11-.1-.14-.08a.7.7,0,0,0-.15.2.2.2,0,0,0,.02.23Zm-.89-1.43a2.784,2.784,0,0,0,.38.84,1.219,1.219,0,0,0,.19.23c.08.07.11.05.14-.04a2.055,2.055,0,0,0,.07-.31c0-.05-.03-.08-.09-.19a2.775,2.775,0,0,1-.15-.3,3.011,3.011,0,0,1-.15-.51.3.3,0,0,0-.08-.14,1.46,1.46,0,0,0-.3-.16c-.06-.02-.1-.01-.11.09a2.514,2.514,0,0,0,.11.49Zm0-.8a.845.845,0,0,0,.29.08c.03,0,.06,0,.06-.08a.975.975,0,0,1,.18-.62c.04-.06.07-.07.06-.13a3.561,3.561,0,0,0-.13-.39c-.04-.11-.08-.16-.16-.16a.225.225,0,0,0-.16.08.994.994,0,0,0-.26.58,1.377,1.377,0,0,0-.02.44.268.268,0,0,0,.14.19Z" fill="#fff"/>
            <path id="Path_88" data-name="Path 88" d="M353.01,64.12a1.651,1.651,0,0,1,.69,1.31c0,.5-.31.74-.69.52a1.651,1.651,0,0,1-.69-1.31C352.32,64.14,352.63,63.9,353.01,64.12Z" fill="#badaf6"/>
            <path id="Path_89" data-name="Path 89" d="M354.36,65.3a2.292,2.292,0,0,1-.27-.17c-.04-.03-.04-.08-.07-.19a1.7,1.7,0,0,0-.11-.32,2.824,2.824,0,0,0-.26-.47.19.19,0,0,1-.04-.15,1,1,0,0,1,.1-.32c.03-.06.07-.08.14-.02a2.114,2.114,0,0,1,.28.42,2.9,2.9,0,0,1,.33.86,1.163,1.163,0,0,1,.03.3c0,.1-.04.11-.12.07Z" fill="#4f3745"/>
            <path id="Path_90" data-name="Path 90" d="M353.37,63.73a.081.081,0,0,1-.1,0,1.476,1.476,0,0,0-.35-.21,1.3,1.3,0,0,0-.21-.04c-.07,0-.1.02-.13-.04a3.238,3.238,0,0,1-.2-.36c-.06-.11-.07-.17-.02-.23a.338.338,0,0,1,.17-.08.946.946,0,0,1,.59.16,1.548,1.548,0,0,1,.34.26.266.266,0,0,1,.05.23.856.856,0,0,1-.13.29Z" fill="#4f3745"/>
            <path id="Path_91" data-name="Path 91" d="M351.65,63.62a.933.933,0,0,1,.26-.58.268.268,0,0,1,.16-.08c.07,0,.11.04.16.16a3.561,3.561,0,0,1,.13.39c.02.06-.02.07-.06.13a.781.781,0,0,0-.11.2,1.364,1.364,0,0,0-.07.42c0,.07-.03.08-.06.08a.789.789,0,0,1-.29-.08.268.268,0,0,1-.14-.19,1.754,1.754,0,0,1,.02-.44Z" fill="#4f3745"/>
            <path id="Path_92" data-name="Path 92" d="M351.76,64.47a1.458,1.458,0,0,1,.3.16.177.177,0,0,1,.08.14,3.011,3.011,0,0,0,.15.51c.03.08.1.2.15.3s.09.13.09.19a2.051,2.051,0,0,1-.07.31c-.03.09-.06.1-.14.04a1.219,1.219,0,0,1-.19-.23,2.785,2.785,0,0,1-.38-.84,2.514,2.514,0,0,1-.11-.49c0-.1.05-.11.11-.09Z" fill="#4f3745"/>
            <path id="Path_93" data-name="Path 93" d="M352.78,66.05a.554.554,0,0,1,.14.08,1.734,1.734,0,0,0,.22.15.86.86,0,0,0,.34.08c.05,0,.08.04.1.09.07.13.13.28.19.42.03.09.04.16-.01.2a.579.579,0,0,1-.32-.01,1.221,1.221,0,0,1-.6-.34,1.01,1.01,0,0,1-.19-.23.2.2,0,0,1-.02-.23,1.492,1.492,0,0,1,.15-.2Z" fill="#4f3745"/>
            <path id="Path_94" data-name="Path 94" d="M353.81,66.23a.841.841,0,0,0,.2-.28,1.146,1.146,0,0,0,.06-.25c.02-.09,0-.14.05-.14a.76.76,0,0,1,.26.06c.08.02.12.07.15.18a.9.9,0,0,1,.02.29,1.039,1.039,0,0,1-.21.63c-.07.1-.18.21-.23.21-.07,0-.12-.06-.15-.14a3.748,3.748,0,0,1-.16-.43c-.01-.05-.02-.1.02-.13Z" fill="#4f3745"/>
          </g>
        </g>
        <g id="Group_24" data-name="Group 24">
          <g id="Group_23" data-name="Group 23">
            <path id="Path_95" data-name="Path 95" d="M360.51,63.61a5.138,5.138,0,0,0-2.14-4.09l-3.73-2.15h0l-6.62-3.82a1.32,1.32,0,0,0-1.52-.03h0l-2.99,1.75a1.465,1.465,0,0,1,1.17.13c.17.07.6.31,1.19.64l.33.19c2.67,1.52,7.8,4.55,8.48,4.89a5.261,5.261,0,0,1,2.31,2.54,26.643,26.643,0,0,1,.48,4.52l3.03-1.76v-2.8Z" fill="#badaf6"/>
            <path id="Path_96" data-name="Path 96" d="M343.51,55.26a.924.924,0,0,0-.09.05Z" fill="#badaf6"/>
          </g>
          <path id="Path_97" data-name="Path 97" d="M355.34,61.27l-3.73-2.15h0l-6.62-3.82c-1.18-.68-2.14.04-2.14,1.62v2.8l.33.19v-2.8c0-1.33.81-1.95,1.81-1.37l8.2,4.74h0l2.14,1.23a4.346,4.346,0,0,1,1.81,3.46v2.8l.33.19v-2.8a5.138,5.138,0,0,0-2.14-4.09Z" fill="#e6f2fb"/>
        </g>
      </g>
      <g id="Group_32" data-name="Group 32">
        <path id="Path_98" data-name="Path 98" d="M332.63,65.87l3.5-2.2s-.8-1.8-.83-1.8-1.39-.83-1.96-.53a2.02,2.02,0,0,0-.92,1.78,21.467,21.467,0,0,0,.21,2.74Z" fill="#98c2e2"/>
        <g id="Group_27" data-name="Group 27">
          <path id="Path_99" data-name="Path 99" d="M341.2,67.61a7.124,7.124,0,0,0-2.97-5.68,4.345,4.345,0,0,0-1.68-.38,4.933,4.933,0,0,0-2.24,1.07,2.709,2.709,0,0,0-.98,1.76l3.34,6.85a1.749,1.749,0,0,0,1.59.07,8.341,8.341,0,0,0,1.36-.77,3.362,3.362,0,0,0,1.15-1.1c.08-.15.21-.46.25-.57a3.968,3.968,0,0,0,.18-1.25Z" fill="#35212d"/>
          <path id="Path_100" data-name="Path 100" d="M333.24,65.35a7.124,7.124,0,0,0,2.97,5.68c1.64.95,2.97-.06,2.97-2.25a7.124,7.124,0,0,0-2.97-5.68C334.57,62.15,333.24,63.16,333.24,65.35Z" fill="#4f3745"/>
          <path id="Path_101" data-name="Path 101" d="M333.79,65.74a5.619,5.619,0,0,0,2.34,4.47c1.29.75,2.34-.05,2.34-1.77a5.619,5.619,0,0,0-2.34-4.47C334.84,63.22,333.79,64.02,333.79,65.74Z" fill="#35212d"/>
          <path id="Path_102" data-name="Path 102" d="M334.44,66.07a4.242,4.242,0,0,0,1.77,3.38c.98.56,1.77-.03,1.77-1.34a4.227,4.227,0,0,0-1.77-3.38C335.23,64.17,334.44,64.76,334.44,66.07Z" fill="#e6f2fb"/>
          <g id="Group_26" data-name="Group 26">
            <path id="Path_103" data-name="Path 103" d="M336.15,65.01a3.793,3.793,0,0,1,1.59,3.03c0,1.17-.71,1.71-1.59,1.2a3.793,3.793,0,0,1-1.59-3.03C334.56,65.04,335.27,64.5,336.15,65.01Zm.34.39a1.292,1.292,0,0,0-.34-.26.886.886,0,0,0-.59-.16.249.249,0,0,0-.17.08c-.05.05-.04.12.02.23s.13.25.2.36c.04.05.06.03.13.04a.464.464,0,0,1,.21.04,1.476,1.476,0,0,1,.35.21c.05.04.08.03.1,0a1.107,1.107,0,0,0,.13-.29.266.266,0,0,0-.05-.23Zm-1.19,1.24a2,2,0,0,0,.85,1.61c.47.27.85-.02.85-.64a2,2,0,0,0-.85-1.61C335.68,65.73,335.3,66.02,335.3,66.64Zm2.2.48a3.22,3.22,0,0,0-.33-.86,2.114,2.114,0,0,0-.28-.42c-.08-.06-.12-.04-.14.02a1.339,1.339,0,0,0-.1.32.241.241,0,0,0,.04.15,2.823,2.823,0,0,1,.26.47c.04.08.07.21.11.32s.03.16.07.19a1.69,1.69,0,0,0,.27.17c.08.04.12.03.12-.07a1.163,1.163,0,0,0-.03-.3Zm-.35,2.01a.87.87,0,0,0,.23-.21,1.071,1.071,0,0,0,.21-.63,1.322,1.322,0,0,0-.02-.29.2.2,0,0,0-.15-.18,1.98,1.98,0,0,0-.26-.06c-.04,0-.03.05-.05.14s-.04.19-.06.25a.841.841,0,0,1-.2.28c-.04.03-.03.08-.02.13a3.748,3.748,0,0,0,.16.43c.04.08.08.15.15.14Zm-1.46-.45a1.011,1.011,0,0,0,.19.23,1.221,1.221,0,0,0,.6.34.5.5,0,0,0,.32.01c.05-.04.05-.12.01-.2a2.256,2.256,0,0,0-.19-.42c-.03-.05-.06-.09-.1-.09a.825.825,0,0,1-.34-.08,1.075,1.075,0,0,1-.22-.15c-.08-.06-.11-.1-.14-.08a.7.7,0,0,0-.15.2.2.2,0,0,0,.02.23Zm-.89-1.44a2.784,2.784,0,0,0,.38.84,1.219,1.219,0,0,0,.19.23c.08.07.11.05.14-.04a2.055,2.055,0,0,0,.07-.31c0-.05-.03-.08-.09-.19a2.775,2.775,0,0,1-.15-.3,3.011,3.011,0,0,1-.15-.51.3.3,0,0,0-.08-.14,1.46,1.46,0,0,0-.3-.16c-.06-.02-.1-.01-.11.09a2.514,2.514,0,0,0,.11.49Zm0-.8a.845.845,0,0,0,.29.08c.03,0,.06,0,.06-.08a.974.974,0,0,1,.18-.62c.04-.06.07-.07.06-.13a3.561,3.561,0,0,0-.13-.39c-.04-.11-.08-.16-.16-.16a.225.225,0,0,0-.16.08.994.994,0,0,0-.26.58,1.377,1.377,0,0,0-.02.44.268.268,0,0,0,.14.19Z" fill="#fff"/>
            <path id="Path_104" data-name="Path 104" d="M336.06,66.32a1.651,1.651,0,0,1,.69,1.31c0,.5-.31.74-.69.52a1.651,1.651,0,0,1-.69-1.31C335.37,66.34,335.68,66.1,336.06,66.32Z" fill="#badaf6"/>
            <path id="Path_105" data-name="Path 105" d="M337.41,67.49a2.292,2.292,0,0,1-.27-.17c-.04-.03-.04-.08-.07-.19a1.7,1.7,0,0,0-.11-.32,2.824,2.824,0,0,0-.26-.47.19.19,0,0,1-.04-.15,1,1,0,0,1,.1-.32c.03-.06.07-.08.14-.02a2.114,2.114,0,0,1,.28.42,2.9,2.9,0,0,1,.33.86,1.163,1.163,0,0,1,.03.3c0,.1-.04.11-.12.07Z" fill="#4f3745"/>
            <path id="Path_106" data-name="Path 106" d="M336.41,65.92a.081.081,0,0,1-.1,0,1.476,1.476,0,0,0-.35-.21,1.3,1.3,0,0,0-.21-.04c-.07,0-.1.02-.13-.04a3.238,3.238,0,0,1-.2-.36c-.06-.11-.07-.17-.02-.23a.338.338,0,0,1,.17-.08.946.946,0,0,1,.59.16,1.548,1.548,0,0,1,.34.26.266.266,0,0,1,.05.23.856.856,0,0,1-.13.29Z" fill="#4f3745"/>
            <path id="Path_107" data-name="Path 107" d="M334.69,65.81a.933.933,0,0,1,.26-.58.268.268,0,0,1,.16-.08c.07,0,.11.04.16.16a3.561,3.561,0,0,1,.13.39c.02.06-.02.07-.06.13a.781.781,0,0,0-.11.2,1.364,1.364,0,0,0-.07.42c0,.07-.03.08-.06.08a.789.789,0,0,1-.29-.08.268.268,0,0,1-.14-.19,1.754,1.754,0,0,1,.02-.44Z" fill="#4f3745"/>
            <path id="Path_108" data-name="Path 108" d="M334.81,66.66a1.458,1.458,0,0,1,.3.16.177.177,0,0,1,.08.14,3.011,3.011,0,0,0,.15.51c.03.08.1.2.15.3s.09.13.09.19a2.051,2.051,0,0,1-.07.31c-.03.09-.06.1-.14.04a1.219,1.219,0,0,1-.19-.23,2.785,2.785,0,0,1-.38-.84,2.514,2.514,0,0,1-.11-.49c0-.1.05-.11.11-.09Z" fill="#4f3745"/>
            <path id="Path_109" data-name="Path 109" d="M335.82,68.24a.554.554,0,0,1,.14.08,1.734,1.734,0,0,0,.22.15.86.86,0,0,0,.34.08c.05,0,.08.04.1.09.07.13.13.28.19.42.03.09.04.16-.01.2a.579.579,0,0,1-.32-.01,1.221,1.221,0,0,1-.6-.34,1.01,1.01,0,0,1-.19-.23.2.2,0,0,1-.02-.23,1.492,1.492,0,0,1,.15-.2Z" fill="#4f3745"/>
            <path id="Path_110" data-name="Path 110" d="M336.85,68.43a.841.841,0,0,0,.2-.28,1.146,1.146,0,0,0,.06-.25c.02-.09,0-.14.05-.14a.76.76,0,0,1,.26.06c.08.02.12.07.15.18a.9.9,0,0,1,.02.29,1.039,1.039,0,0,1-.21.63c-.07.1-.18.21-.23.21-.07,0-.12-.06-.15-.14a3.748,3.748,0,0,1-.16-.43c-.01-.05-.02-.1.02-.13Z" fill="#4f3745"/>
          </g>
        </g>
        <g id="Group_29" data-name="Group 29">
          <path id="Path_111" data-name="Path 111" d="M347.61,71.37a7.124,7.124,0,0,0-2.97-5.68,4.345,4.345,0,0,0-1.68-.38,4.933,4.933,0,0,0-2.24,1.07,2.709,2.709,0,0,0-.98,1.76l3.34,6.85a1.749,1.749,0,0,0,1.59.07,8.341,8.341,0,0,0,1.36-.77,3.362,3.362,0,0,0,1.15-1.1c.08-.15.21-.46.25-.57a3.968,3.968,0,0,0,.18-1.25Z" fill="#35212d"/>
          <path id="Path_112" data-name="Path 112" d="M339.65,69.1a7.124,7.124,0,0,0,2.97,5.68c1.64.95,2.97-.06,2.97-2.25a7.124,7.124,0,0,0-2.97-5.68C340.98,65.9,339.65,66.91,339.65,69.1Z" fill="#4f3745"/>
          <path id="Path_113" data-name="Path 113" d="M340.2,69.5a5.619,5.619,0,0,0,2.34,4.47c1.29.75,2.34-.05,2.34-1.77a5.619,5.619,0,0,0-2.34-4.47C341.25,66.98,340.2,67.78,340.2,69.5Z" fill="#35212d"/>
          <path id="Path_114" data-name="Path 114" d="M340.85,69.83a4.242,4.242,0,0,0,1.77,3.38c.98.56,1.77-.03,1.77-1.34a4.227,4.227,0,0,0-1.77-3.38C341.64,67.93,340.85,68.52,340.85,69.83Z" fill="#e6f2fb"/>
          <g id="Group_28" data-name="Group 28">
            <path id="Path_115" data-name="Path 115" d="M342.56,68.77a3.793,3.793,0,0,1,1.59,3.03c0,1.17-.71,1.71-1.59,1.2a3.793,3.793,0,0,1-1.59-3.03C340.97,68.8,341.68,68.26,342.56,68.77Zm.34.39a1.292,1.292,0,0,0-.34-.26.886.886,0,0,0-.59-.16.249.249,0,0,0-.17.08c-.05.05-.04.12.02.23s.13.25.2.36c.04.05.06.03.13.04a.464.464,0,0,1,.21.04,1.476,1.476,0,0,1,.35.21c.05.04.08.03.1,0a1.107,1.107,0,0,0,.13-.29.266.266,0,0,0-.05-.23Zm-1.19,1.23a2,2,0,0,0,.85,1.61c.47.27.85-.02.85-.64a2,2,0,0,0-.85-1.61C342.09,69.48,341.71,69.77,341.71,70.39Zm2.2.49a3.22,3.22,0,0,0-.33-.86,2.114,2.114,0,0,0-.28-.42c-.08-.06-.12-.04-.14.02a1.339,1.339,0,0,0-.1.32.241.241,0,0,0,.04.15,2.823,2.823,0,0,1,.26.47c.04.08.07.21.11.32s.03.16.07.19a1.69,1.69,0,0,0,.27.17c.08.04.12.03.12-.07a1.163,1.163,0,0,0-.03-.3Zm-.35,2.01a.87.87,0,0,0,.23-.21,1.071,1.071,0,0,0,.21-.63,1.322,1.322,0,0,0-.02-.29.2.2,0,0,0-.14-.18,1.98,1.98,0,0,0-.26-.06c-.04,0-.03.05-.05.14s-.04.19-.06.25a.841.841,0,0,1-.2.28c-.04.03-.03.08-.02.13a3.748,3.748,0,0,0,.16.43C343.45,72.83,343.49,72.9,343.56,72.89Zm-1.46-.46a1.011,1.011,0,0,0,.19.23,1.221,1.221,0,0,0,.6.34.5.5,0,0,0,.32.01c.05-.04.05-.12.01-.21a2.256,2.256,0,0,0-.19-.42c-.03-.05-.06-.09-.1-.09a.86.86,0,0,1-.34-.08,1.075,1.075,0,0,1-.22-.15c-.08-.06-.11-.1-.14-.08a.7.7,0,0,0-.15.2.2.2,0,0,0,.02.23ZM341.21,71a2.784,2.784,0,0,0,.38.84,1.219,1.219,0,0,0,.19.23c.08.07.11.05.14-.04a2.055,2.055,0,0,0,.07-.31c0-.05-.03-.08-.09-.19a2.775,2.775,0,0,1-.15-.3,3.011,3.011,0,0,1-.15-.51.3.3,0,0,0-.08-.14,1.46,1.46,0,0,0-.3-.16c-.06-.02-.1-.01-.11.09a2.514,2.514,0,0,0,.11.49Zm0-.8a.845.845,0,0,0,.29.08c.03,0,.06,0,.06-.08a.974.974,0,0,1,.18-.62c.04-.06.07-.07.06-.13a3.561,3.561,0,0,0-.13-.39c-.04-.11-.09-.16-.16-.16a.225.225,0,0,0-.16.08.994.994,0,0,0-.26.58,1.377,1.377,0,0,0-.02.44.268.268,0,0,0,.14.19Z" fill="#fff"/>
            <path id="Path_116" data-name="Path 116" d="M342.47,70.08a1.651,1.651,0,0,1,.69,1.31c0,.5-.31.74-.69.52a1.651,1.651,0,0,1-.69-1.31C341.78,70.1,342.09,69.86,342.47,70.08Z" fill="#badaf6"/>
            <path id="Path_117" data-name="Path 117" d="M343.82,71.25a2.292,2.292,0,0,1-.27-.17c-.04-.03-.04-.08-.07-.19a1.7,1.7,0,0,0-.11-.32,2.824,2.824,0,0,0-.26-.47.19.19,0,0,1-.04-.15,1,1,0,0,1,.1-.32c.03-.06.07-.08.14-.02a2.114,2.114,0,0,1,.28.42,2.9,2.9,0,0,1,.33.86,1.163,1.163,0,0,1,.03.3c0,.1-.04.11-.12.07Z" fill="#4f3745"/>
            <path id="Path_118" data-name="Path 118" d="M342.82,69.68a.081.081,0,0,1-.1,0,1.476,1.476,0,0,0-.35-.21.712.712,0,0,0-.21-.04c-.07,0-.1.02-.13-.04a3.238,3.238,0,0,1-.2-.36c-.06-.11-.07-.17-.02-.23a.338.338,0,0,1,.17-.08.946.946,0,0,1,.59.16,1.548,1.548,0,0,1,.34.26.266.266,0,0,1,.05.23.856.856,0,0,1-.13.29Z" fill="#4f3745"/>
            <path id="Path_119" data-name="Path 119" d="M341.1,69.57a.933.933,0,0,1,.26-.58.268.268,0,0,1,.16-.08c.07,0,.11.04.16.16a3.561,3.561,0,0,1,.13.39c.02.06-.02.07-.06.13a.781.781,0,0,0-.11.2,1.364,1.364,0,0,0-.07.42c0,.07-.03.08-.06.08a.789.789,0,0,1-.29-.08.268.268,0,0,1-.14-.19,1.754,1.754,0,0,1,.02-.44Z" fill="#4f3745"/>
            <path id="Path_120" data-name="Path 120" d="M341.22,70.42a1.458,1.458,0,0,1,.3.16.177.177,0,0,1,.08.14,3.011,3.011,0,0,0,.15.51c.03.08.1.2.15.3s.09.13.09.19a2.051,2.051,0,0,1-.07.31c-.03.09-.06.1-.14.04a1.219,1.219,0,0,1-.19-.23,2.785,2.785,0,0,1-.38-.84,2.514,2.514,0,0,1-.11-.49c0-.1.05-.11.11-.09Z" fill="#4f3745"/>
            <path id="Path_121" data-name="Path 121" d="M342.23,72a.554.554,0,0,1,.14.08,1.734,1.734,0,0,0,.22.15.86.86,0,0,0,.34.08c.05,0,.08.04.1.09.07.13.13.28.19.42.03.09.04.16-.01.21a.579.579,0,0,1-.32-.01,1.221,1.221,0,0,1-.6-.34,1.01,1.01,0,0,1-.19-.23.2.2,0,0,1-.02-.23,1.492,1.492,0,0,1,.15-.2Z" fill="#4f3745"/>
            <path id="Path_122" data-name="Path 122" d="M343.26,72.19a.841.841,0,0,0,.2-.28,1.146,1.146,0,0,0,.06-.25c.02-.09,0-.14.05-.14a.76.76,0,0,1,.26.06c.08.02.12.07.14.18a.9.9,0,0,1,.02.29,1.039,1.039,0,0,1-.21.63c-.07.1-.18.21-.23.21-.07,0-.12-.06-.15-.14a3.748,3.748,0,0,1-.16-.43C343.23,72.27,343.22,72.22,343.26,72.19Z" fill="#4f3745"/>
          </g>
        </g>
        <g id="Group_31" data-name="Group 31">
          <g id="Group_30" data-name="Group 30">
            <path id="Path_123" data-name="Path 123" d="M349.96,69.56a5.138,5.138,0,0,0-2.14-4.09l-3.73-2.15h0l-6.62-3.82a1.32,1.32,0,0,0-1.52-.03h0l-2.99,1.75a1.465,1.465,0,0,1,1.17.13c.17.07.6.31,1.19.64l.33.19c2.67,1.52,7.8,4.55,8.48,4.89a5.261,5.261,0,0,1,2.31,2.54,26.643,26.643,0,0,1,.48,4.52l3.03-1.76v-2.8Z" fill="#badaf6"/>
            <path id="Path_124" data-name="Path 124" d="M332.96,61.21a.924.924,0,0,0-.09.05Z" fill="#badaf6"/>
          </g>
          <path id="Path_125" data-name="Path 125" d="M344.79,67.22l-3.73-2.15h0l-6.62-3.82c-1.18-.68-2.14.04-2.14,1.62v2.8l.33.19v-2.8c0-1.33.81-1.95,1.81-1.37l8.2,4.74h0l2.14,1.23a4.346,4.346,0,0,1,1.81,3.46v2.8l.33.19v-2.8a5.138,5.138,0,0,0-2.14-4.09Z" fill="#e6f2fb"/>
        </g>
      </g>
      <g id="Group_33" data-name="Group 33">
        <path id="Path_126" data-name="Path 126" d="M295.69,21.05a2.035,2.035,0,0,0-1.05-.27,1.943,1.943,0,0,0-1.05.27h-.38v.56c0,.46.64.83,1.43.83s1.43-.37,1.43-.83v-.56Z" fill="#35212d"/>
        <path id="Path_127" data-name="Path 127" d="M296.07,21.05c0,.46-.64.83-1.43.83s-1.43-.37-1.43-.83.64-.83,1.43-.83S296.07,20.59,296.07,21.05Z" fill="#4f3745"/>
        <path id="Path_128" data-name="Path 128" d="M295.5,19.28h-1.71l-.16,1.76c0,.33.46.59,1.02.59s1.02-.26,1.02-.59l-.16-1.76Z" fill="#0e58d7"/>
        <path id="Path_129" data-name="Path 129" d="M295.5,19.28c0,.27-.38.5-.86.5s-.86-.22-.86-.5.38-.5.86-.5S295.5,19,295.5,19.28Z" fill="#1d76e1"/>
      </g>
      <g id="Group_34" data-name="Group 34">
        <path id="Path_130" data-name="Path 130" d="M346.63,49.3l13.86-8.06V59.93l-13.86,8.05Z" fill="#0049b2"/>
        <path id="Path_131" data-name="Path 131" d="M347.3,49.69l12.66-7.36V59.57L347.3,66.93Z" fill="#badaf6"/>
        <path id="Path_132" data-name="Path 132" d="M354.13,45.3l-.36.21V63.58l.36-.21Z" fill="#0049b2"/>
        <path id="Path_133" data-name="Path 133" d="M311.26,12.77,297.4,20.82,346.63,49.3l13.86-8.06Z" fill="#1d76e1"/>
        <path id="Path_134" data-name="Path 134" d="M297.4,20.82V39.51l49.23,28.47V49.3Z" fill="#0e58d7"/>
        <path id="Path_135" data-name="Path 135" d="M298.12,22.01V39.26l47.9,27.69V49.71l-5.31-3.07Z" fill="#e6f2fb"/>
      </g>
      <path id="Path_136" data-name="Path 136" d="M321.35,52.69a20.359,20.359,0,0,0,11.8,1.36,17.856,17.856,0,0,0,10.32-5.78l2.55,1.44V66.96L321.35,52.69Z" fill="#fdd03e"/>
    </g>
    <g id="Group_36" data-name="Group 36">
      <path id="Path_137" data-name="Path 137" d="M300.59,37.04V26.59l1.77,1.02V38.05l-1.77-1.02Z" fill="#0049b2"/>
      <path id="Path_138" data-name="Path 138" d="M304.21,39.12V28.68l1.93,1.12,1.26,5.37c.08.36.16.72.23,1.08s.15.73.23,1.1l.05.03c.08-.27.15-.55.22-.84s.14-.56.22-.82l1.24-3.93,1.92,1.11V43.34l-1.61-.93V38.58c0-.26,0-.53.02-.84l.06-.9c.02-.3.05-.6.07-.89s.05-.56.07-.8l-.05-.03-.64,2.12-1.12,3.34-.97-.56-1.12-4.63-.62-2.84-.05-.03c.02.27.05.56.07.88s.05.64.07.97.04.65.06.97.02.61.02.86v3.83l-1.59-.92Z" fill="#0049b2"/>
      <path id="Path_139" data-name="Path 139" d="M313.36,44.41V33.97l2.69,1.55a7.424,7.424,0,0,1,1.21.87,5.946,5.946,0,0,1,.99,1.13,5.707,5.707,0,0,1,.67,1.43,5.994,5.994,0,0,1,.25,1.74,3.294,3.294,0,0,1-.25,1.44,1.4,1.4,0,0,1-.67.72,1.562,1.562,0,0,1-.97.08,3.867,3.867,0,0,1-1.18-.47l-.97-.56v3.54l-1.77-1.02Zm1.77-4.39.86.5c.96.55,1.44.28,1.44-.83a2.457,2.457,0,0,0-.38-1.38,3.229,3.229,0,0,0-1.11-.97l-.82-.47v3.16Z" fill="#0049b2"/>
      <path id="Path_140" data-name="Path 140" d="M323.71,50.57a5.877,5.877,0,0,1-1.45-1.21,7.459,7.459,0,0,1-1.12-1.73,10.465,10.465,0,0,1-.73-2.13,11.335,11.335,0,0,1-.26-2.44,7.5,7.5,0,0,1,.26-2.13,2.554,2.554,0,0,1,.73-1.26,1.6,1.6,0,0,1,1.12-.39,3.057,3.057,0,0,1,1.45.48,5.831,5.831,0,0,1,1.45,1.2,7.263,7.263,0,0,1,1.12,1.7,10.074,10.074,0,0,1,.73,2.11,11.149,11.149,0,0,1,.26,2.42,7.625,7.625,0,0,1-.26,2.14,2.759,2.759,0,0,1-.73,1.29,1.588,1.588,0,0,1-1.12.43,2.9,2.9,0,0,1-1.45-.46Zm0-2.03a.852.852,0,0,0,1.27-.19,3.989,3.989,0,0,0,.47-2.24,7.2,7.2,0,0,0-.47-2.72,3.157,3.157,0,0,0-1.27-1.62c-.54-.31-.96-.26-1.27.15a3.739,3.739,0,0,0-.47,2.18,7.674,7.674,0,0,0,.47,2.78A3.186,3.186,0,0,0,323.71,48.54Z" fill="#0049b2"/>
      <path id="Path_141" data-name="Path 141" d="M328.74,53.29V42.85l2.82,1.63a6.936,6.936,0,0,1,1.17.84,5.906,5.906,0,0,1,.96,1.09,5.482,5.482,0,0,1,.65,1.38,5.61,5.61,0,0,1,.24,1.69,2.935,2.935,0,0,1-.38,1.68,1.193,1.193,0,0,1-1.02.53l1.78,5.21-1.98-1.14-1.5-4.63-.97-.56v3.76l-1.77-1.02Zm1.77-4.62.91.53c.46.27.82.34,1.06.22s.37-.44.37-.95a2.16,2.16,0,0,0-.37-1.29,3.356,3.356,0,0,0-1.06-.92l-.91-.53v2.93Z" fill="#0049b2"/>
      <path id="Path_142" data-name="Path 142" d="M337.41,58.3V49.84l-2.15-1.24V46.61l6.08,3.51v1.99l-2.15-1.24v8.46l-1.78-1.03Z" fill="#0049b2"/>
    </g>
  </g>
</svg>
